<?xml version="1.0" standalone="no"?>
<!DOCTYPE svg PUBLIC "-//W3C//DTD SVG 1.1//EN" "http://www.w3.org/Graphics/SVG/1.1/DTD/svg11.dtd" >
<svg xmlns="http://www.w3.org/2000/svg" xmlns:xlink="http://www.w3.org/1999/xlink" version="1.1">
<metadata>
Created by FontForge 20170731 at Wed Jun 27 11:07:41 2001
 By ,,,
2000 Albert-Jan Pool, published by Fontshop International for the FontFont library.
</metadata>
<defs>
<font id="DINCond-Medium" horiz-adv-x="377" >
  <font-face 
    font-family="DINCond-Medium"
    font-weight="400"
    font-stretch="normal"
    units-per-em="1000"
    panose-1="2 0 6 6 3 0 0 2 0 4"
    ascent="760"
    descent="-240"
    x-height="518"
    cap-height="712"
    bbox="-101 -200 919 949"
    underline-thickness="77"
    underline-position="-229"
    unicode-range="U+0020-FB02"
  />
<missing-glyph horiz-adv-x="1000" 
 />
    <glyph glyph-name=".notdef" horiz-adv-x="1000" 
 />
    <glyph glyph-name=".null" horiz-adv-x="0" 
 />
    <glyph glyph-name="nonmarkingreturn" horiz-adv-x="500" 
 />
    <glyph glyph-name="space" unicode=" " horiz-adv-x="187" 
 />
    <glyph glyph-name="exclam" unicode="!" horiz-adv-x="242" 
d="M84 0v99h99v-99h-99zM93 193v519h81v-519h-81z" />
    <glyph glyph-name="quotedbl" unicode="&#x22;" horiz-adv-x="395" 
d="M67 520v192h83v-192h-83zM244 520v192h83v-192h-83z" />
    <glyph glyph-name="numbersign" unicode="#" horiz-adv-x="554" 
d="M234 436l-19 -145h104l20 145h-105zM421 436l-19 -145h72v-76h-84l-29 -215h-82l29 215h-105l-29 -215h-82l29 215h-70v76h82l19 145h-72l-1 76h84l27 200h83l-27 -200h104l27 200h83l-28 -200h70l1 -76h-82z" />
    <glyph glyph-name="dollar" unicode="$" horiz-adv-x="434" 
d="M178 636q-14 -6 -24 -17q-25 -28 -25 -85q0 -23 2 -39.5t7 -28.5t15 -21t25 -17v208zM305 189q0 27 -2 46t-8 33t-15.5 24t-24.5 18v-234q16 6 27 18q14 16 18.5 38t4.5 57zM391 191q0 -56 -9.5 -92.5t-35.5 -62.5q-16 -16 -38.5 -26.5t-52.5 -14.5v-109h-77v108
q-62 7 -96 42q-25 25 -34.5 59t-9.5 91h86q0 -35 5 -56.5t19 -36.5q10 -12 30 -18v262l-38 16q-27 11 -46 25t-30 34.5t-16 49t-5 69.5q0 47 13.5 84t40.5 62q33 30 81 39v90h77v-90q55 -8 87 -39q27 -26 37 -61.5t10 -84.5h-86q0 29 -4 49t-18 37q-10 12 -26 19v-235
l36 -15q30 -12 49.5 -28.5t31 -39.5t15.5 -54t4 -73z" />
    <glyph glyph-name="percent" unicode="%" horiz-adv-x="675" 
d="M208 609q0 25 -12 38t-33 13q-44 0 -44 -51v-151q0 -51 44 -51q21 0 33 13t12 38v151zM556 254q0 25 -12 38t-33 13t-33 -13t-12 -38v-151q0 -25 12 -38t33 -13t33 13t12 38v151zM246 0h-65l248 712h65zM276 456q0 -53 -32.5 -81.5t-80.5 -28.5t-80 28.5t-32 81.5v154
q0 53 32 81.5t80 28.5t80.5 -28.5t32.5 -81.5v-154v0zM624 102q0 -53 -32.5 -81.5t-80.5 -28.5t-80.5 28.5t-32.5 81.5v154q0 53 32.5 81.5t80.5 28.5t80.5 -28.5t32.5 -81.5v-154v0z" />
    <glyph glyph-name="ampersand" unicode="&#x26;" horiz-adv-x="492" 
d="M270 575q0 32 -17.5 51.5t-45.5 19.5q-32 0 -47.5 -23.5t-15.5 -52.5q0 -26 13.5 -54t46.5 -74q16 16 28 30.5t20.5 30t13 33t4.5 39.5zM191 324q-40 -40 -58.5 -75t-18.5 -73q0 -47 24.5 -78.5t67.5 -31.5q32 0 57.5 19.5t49.5 51.5zM402 0l-48 73q-32 -37 -66.5 -59
t-88.5 -22q-35 0 -64.5 12t-51.5 35t-34.5 55.5t-12.5 74.5q0 63 28.5 114t86.5 106q-21 30 -36.5 53t-25.5 44t-15 40.5t-5 41.5q0 69 37 110t100 41q70 0 104.5 -40.5t34.5 -101.5q0 -32 -6 -58t-18.5 -49.5t-31.5 -46t-44 -46.5l109 -165q15 29 25 70t13 80h72
q-4 -61 -21.5 -119.5t-43.5 -101.5l90 -141h-87z" />
    <glyph glyph-name="quotesingle" unicode="'" horiz-adv-x="218" 
d="M67 520v192h84v-192h-84z" />
    <glyph glyph-name="parenleft" unicode="(" horiz-adv-x="244" 
d="M148 -94q-22 22 -41 43.5t-32 44.5q-14 26 -18 53t-4 55v508q0 28 4 55t18 53q14 25 32.5 45.5t40.5 42.5l55 -55q-16 -16 -30 -30.5t-24 -33.5q-15 -30 -15 -83v-496q0 -53 15 -83q10 -19 24 -33.5t30 -30.5z" />
    <glyph glyph-name="parenright" unicode=")" horiz-adv-x="244" 
d="M191 102q0 -28 -4 -55t-18 -53q-13 -23 -32 -44.5t-41 -43.5l-55 55q16 16 30 30.5t24 33.5q15 30 15 83v496q0 53 -15 83q-10 19 -24 33.5t-30 30.5l55 55q22 -22 40.5 -42.5t32.5 -45.5q14 -26 18 -53t4 -55v-508v0z" />
    <glyph glyph-name="asterisk" unicode="*" horiz-adv-x="393" 
d="M316 440l-92 56l3 -126h-61l4 126l-93 -56l-30 52l95 51l-95 50l30 53l93 -57l-4 126h61l-3 -126l92 57l30 -53l-96 -50l96 -51z" />
    <glyph glyph-name="plus" unicode="+" horiz-adv-x="444" 
d="M261 244v-137h-77v137h-138v77h138v138h77v-138h137v-77h-137z" />
    <glyph glyph-name="comma" unicode="," horiz-adv-x="207" 
d="M57 -124v224h92v-156z" />
    <glyph glyph-name="hyphen" unicode="-" horiz-adv-x="298" 
d="M51 244v77h196v-77h-196z" />
    <glyph glyph-name="hyphen" unicode="&#xad;" horiz-adv-x="298" 
d="M51 244v77h196v-77h-196z" />
    <glyph glyph-name="period" unicode="." horiz-adv-x="216" 
d="M59 0v99h99v-99h-99z" />
    <glyph glyph-name="slash" unicode="/" horiz-adv-x="272" 
d="M83 -74h-79l185 860h79z" />
    <glyph glyph-name="zero" unicode="0" horiz-adv-x="381" 
d="M252 575q0 36 -18 54t-44 18t-43.5 -18t-17.5 -54v-438q0 -36 17.5 -54t43.5 -18t44 18t18 54v438zM333 140q0 -40 -10.5 -65.5t-29.5 -44.5q-19 -18 -46.5 -28t-56.5 -10t-56 10t-46 28q-19 19 -29.5 44.5t-10.5 65.5v432q0 40 10.5 65.5t29.5 44.5q19 18 46 28t56 10
t56.5 -10t46.5 -28q19 -19 29.5 -44.5t10.5 -65.5v-432v0z" />
    <glyph glyph-name="one" unicode="1" horiz-adv-x="381" 
d="M171 0v617l-104 -85v94l104 86h81v-712h-81z" />
    <glyph glyph-name="two" unicode="2" horiz-adv-x="381" 
d="M49 0v68l174 369q12 26 22 60.5t10 77.5q0 36 -17.5 54t-43.5 18t-44 -18t-18 -54v-48h-81v46q0 39 10.5 64.5t29.5 44.5q19 18 46.5 28t56.5 10t55 -9t45 -27t30.5 -45t11.5 -67t-12 -83t-29 -78l-159 -338h200v-73h-287z" />
    <glyph glyph-name="three" unicode="3" horiz-adv-x="381" 
d="M334 200q0 -32 -1.5 -57t-6 -45.5t-13 -36.5t-23.5 -31q-18 -18 -45.5 -28t-56.5 -10t-56 10t-46 28q-19 19 -30 44t-11 65v46h81v-48q0 -36 18 -54t44 -18q28 0 44 19q13 15 17 43.5t4 76.5q0 53 -4 79t-17 42q-15 20 -44 20h-38v68h38q23 0 39 16q13 14 16.5 39t3.5 63
t-3.5 61.5t-14.5 37.5q-15 17 -41 17q-25 0 -41 -17.5t-16 -52.5v-50h-81v46q0 39 10 65t29 45q39 37 99 37q62 0 98 -36q22 -22 32 -55.5t10 -92.5q0 -44 -4 -70t-15 -47q-14 -24 -39 -40q27 -18 40 -39q7 -12 11.5 -24t7.5 -28t4 -37t1 -51z" />
    <glyph glyph-name="four" unicode="4" horiz-adv-x="381" 
d="M303 117v-117h-81v117h-193v73l182 522h78l-177 -522h110v163h81v-163h50v-73h-50z" />
    <glyph glyph-name="five" unicode="5" horiz-adv-x="381" 
d="M336 233q0 -39 -1 -69t-5 -53.5t-13 -42.5t-24 -35q-18 -20 -46 -30.5t-57 -10.5t-56 9.5t-46 27.5q-19 19 -30 44.5t-11 65.5v41h81v-48q0 -39 18 -57t44 -18q29 0 45 22q13 18 16.5 53.5t3.5 94.5t-3.5 91.5t-15.5 50.5q-17 24 -46 24q-26 0 -44 -19t-18 -53v-24h-77
v415h276v-73h-202v-221q7 10 16 19t19 15q23 13 53 13q29 0 50.5 -10t38.5 -30q23 -28 28.5 -72.5t5.5 -119.5z" />
    <glyph glyph-name="six" unicode="6" horiz-adv-x="381" 
d="M255 214q0 47 -3 80t-17 50q-17 20 -45 20q-27 0 -44 -20q-14 -17 -17 -50t-3 -80t3 -80t17 -50q16 -19 44 -19q29 0 45 19q14 17 17 50t3 80zM336 213q0 -38 -2 -65t-6.5 -46.5t-11 -34t-16.5 -27.5q-19 -25 -48 -36.5t-62 -11.5q-36 0 -64 12.5t-45 35.5
q-11 14 -18 29.5t-11 35.5t-5.5 46t-1.5 62q0 54 7.5 97.5t21.5 81.5l120 320h83l-116 -297q22 17 51 17q27 0 49 -10.5t39 -30.5q10 -12 16.5 -25t11 -33t6.5 -48.5t2 -71.5z" />
    <glyph glyph-name="seven" unicode="7" horiz-adv-x="381" 
d="M151 0h-82l188 639h-138v-105h-79v178h299v-67z" />
    <glyph glyph-name="eight" unicode="8" horiz-adv-x="381" 
d="M250 530q0 38 -4 62.5t-16 38.5q-15 16 -40 16t-40 -16q-12 -14 -15.5 -38.5t-3.5 -62.5t3.5 -64.5t17.5 -40.5t38 -14t39 15q14 14 17.5 40t3.5 64zM255 202q0 51 -3.5 77.5t-17.5 43.5q-16 19 -44 19q-26 0 -43 -19q-14 -17 -17.5 -43.5t-3.5 -77.5q0 -46 4 -74t17 -45
q8 -10 19 -14t24 -4t24.5 4t19.5 14q13 16 17 44.5t4 74.5zM336 198q0 -33 -1.5 -58t-6 -44.5t-13 -35t-22.5 -29.5q-18 -19 -46 -29t-57 -10t-56.5 10t-45.5 29q-14 14 -22.5 29.5t-13 35t-6 44.5t-1.5 58q0 30 1 51t3.5 36.5t7 27.5t11.5 23t17.5 21.5t23.5 18.5
q-26 18 -39 41q-11 21 -15.5 46.5t-4.5 69.5q0 58 9 92t33 58q37 37 98 37q29 0 55 -9.5t44 -27.5q24 -24 33 -58t9 -92q0 -44 -4.5 -69.5t-15.5 -46.5q-13 -23 -39 -41q26 -17 40 -40q7 -11 11.5 -23t7.5 -27.5t4 -36.5t1 -51z" />
    <glyph glyph-name="nine" unicode="9" horiz-adv-x="381" 
d="M255 498q0 47 -3 80t-17 50q-16 19 -45 19q-28 0 -44 -19q-14 -17 -17 -50t-3 -80t3 -80t17 -50q17 -20 44 -20q28 0 45 20q14 17 17 50t3 80zM336 499q0 -54 -7.5 -97.5t-21.5 -81.5l-120 -320h-83l116 297q-22 -17 -51 -17q-27 0 -49 10.5t-39 30.5q-10 12 -16.5 25
t-11 33t-6.5 48.5t-2 71.5q0 38 2 65t6.5 46.5t11 34t16.5 27.5q19 25 48 36.5t62 11.5q36 0 64 -12.5t45 -35.5q11 -14 18 -29.5t11 -35.5t5.5 -46t1.5 -62z" />
    <glyph glyph-name="colon" unicode=":" horiz-adv-x="242" 
d="M84 0v99h99v-99h-99zM84 326v99h99v-99h-99z" />
    <glyph glyph-name="semicolon" unicode=";" horiz-adv-x="242" 
d="M84 326v99h99v-99h-99zM88 -124v224h92v-156z" />
    <glyph glyph-name="semicolon" unicode="&#x37e;" horiz-adv-x="242" 
d="M84 326v99h99v-99h-99zM88 -124v224h92v-156z" />
    <glyph glyph-name="less" unicode="&#x3c;" horiz-adv-x="381" 
d="M34 257v61l313 183v-90l-216 -123l216 -123v-90z" />
    <glyph glyph-name="equal" unicode="=" horiz-adv-x="444" 
d="M46 158v77h352v-77h-352zM46 320v77h352v-77h-352z" />
    <glyph glyph-name="greater" unicode="&#x3e;" horiz-adv-x="381" 
d="M34 75v90l216 123l-216 123v90l313 -183v-61z" />
    <glyph glyph-name="question" unicode="?" horiz-adv-x="400" 
d="M160 0v99h99v-99h-99zM362 535q0 -38 -6.5 -65.5t-24.5 -53.5l-59 -85q-22 -32 -22 -70v-68h-81v78q0 23 8 44.5t20 39.5l58 85q17 24 21.5 45.5t4.5 51.5q0 33 -5 53.5t-18 34.5q-18 20 -50 20q-29 0 -48 -19q-15 -16 -18.5 -38t-3.5 -44h-81q0 42 9.5 75.5t33.5 56.5
q20 19 46.5 30.5t61.5 11.5q69 0 110 -41q23 -23 33.5 -55.5t10.5 -86.5z" />
    <glyph glyph-name="at" unicode="@" horiz-adv-x="562" 
d="M423 343q0 36 -17.5 54t-43.5 18t-44 -18t-18 -54v-206q0 -36 18 -54t44 -18t43.5 18t17.5 54v206zM426 0v40q-5 -9 -14.5 -18t-17.5 -14q-26 -16 -56 -16q-29 0 -50 9.5t-38 28.5q-16 17 -23.5 41t-7.5 66v205q0 42 7.5 66.5t23.5 41.5q17 19 38 28t50 9q17 0 30 -3.5
t26 -11.5q7 -5 15.5 -12.5t13.5 -15.5v106q0 47 -22.5 70t-63.5 23h-119q-40 0 -63 -23t-23 -70v-431q0 -26 7 -42.5t21 -30.5l-58 -57q-29 26 -40 56t-11 72v441q0 42 11.5 68t31.5 46q19 19 46 29.5t62 10.5h151q35 0 62 -10.5t46 -29.5q20 -20 31.5 -46t11.5 -68v-558
h-78z" />
    <glyph glyph-name="A" unicode="A" horiz-adv-x="424" 
d="M212 573l-67 -328h133zM328 0l-34 168h-165l-34 -168h-90l166 712h83l165 -712h-91z" />
    <glyph glyph-name="B" unicode="B" horiz-adv-x="444" 
d="M303 521q0 65 -23 89.5t-69 24.5h-61v-228h61q47 0 69.5 26.5t22.5 87.5zM308 205q0 69 -24 98.5t-72 29.5h-62v-256h62q24 0 42 6t30 21t18 39.5t6 61.5zM394 205q0 -63 -10.5 -100t-34.5 -62q-22 -23 -53 -33t-79 -10h-153v712h154q47 0 77.5 -10t52.5 -33
q23 -25 32 -58.5t9 -87.5q0 -37 -6.5 -68t-32.5 -57q-9 -9 -19.5 -16t-21.5 -11q26 -8 44 -27q28 -29 34.5 -66t6.5 -73z" />
    <glyph glyph-name="C" unicode="C" horiz-adv-x="423" 
d="M386 176q-1 -45 -15 -83t-40 -62q-21 -20 -47.5 -29.5t-62.5 -9.5q-43 0 -72.5 14t-49.5 37q-18 20 -28.5 46.5t-16 63.5t-6.5 86.5t-1 116.5t1 116.5t6.5 86.5t16 63.5t28.5 46.5q20 23 49.5 37t72.5 14q37 0 64.5 -11t48.5 -31q25 -24 37.5 -60.5t13.5 -81.5h-86
q0 23 -5 45t-17 37q-9 11 -22.5 18t-33.5 7q-21 0 -35 -7.5t-23 -19.5q-9 -13 -15 -31.5t-9.5 -48t-4.5 -73.5t-1 -107t1 -107t4.5 -73.5t9.5 -48t15 -31.5q9 -12 23 -19.5t35 -7.5q20 0 33.5 7.5t22.5 18.5q12 15 17.5 36.5t5.5 44.5h86v0z" />
    <glyph glyph-name="D" unicode="D" horiz-adv-x="448" 
d="M315 356q0 61 -1 103.5t-4 71t-8.5 46.5t-15.5 31q-9 12 -24 19.5t-36 7.5h-76v-558h76q21 0 36 7.5t24 19.5q10 13 15.5 31t8.5 46.5t4 71t1 103.5zM401 356q0 -66 -1 -114.5t-5.5 -84.5t-15 -61.5t-28.5 -45.5q-20 -22 -49.5 -36t-72.5 -14h-165v712h165q43 0 72.5 -14
t49.5 -36q18 -20 28.5 -45.5t15 -61.5t5.5 -84.5t1 -114.5z" />
    <glyph glyph-name="E" unicode="E" horiz-adv-x="380" 
d="M64 0v712h275v-77h-189v-239h163v-77h-163v-242h189v-77h-275z" />
    <glyph glyph-name="F" unicode="F" horiz-adv-x="375" 
d="M150 635v-239h163v-77h-163v-319h-86v712h275v-77h-189z" />
    <glyph glyph-name="G" unicode="G" horiz-adv-x="434" 
d="M386 171q0 -44 -12.5 -77.5t-35 -56t-52.5 -34t-65 -11.5q-43 0 -72.5 14t-49.5 37q-18 20 -28.5 46.5t-16 63.5t-6.5 86.5t-1 116.5t1 116.5t6.5 86.5t16 63.5t28.5 46.5q20 23 49.5 37t72.5 14q38 0 66.5 -12t48.5 -32q25 -26 37 -61.5t13 -79.5h-86q0 18 -3 37
t-11.5 35t-24 26t-40.5 10q-21 0 -35 -7.5t-23 -19.5q-9 -13 -15 -31.5t-9.5 -48t-4.5 -73.5t-1 -107t1 -107t4.5 -73.5t9.5 -48t15 -31.5q9 -12 23 -19.5t35 -7.5q38 0 58.5 27.5t20.5 71.5v142h-79v72h165v-211v0z" />
    <glyph glyph-name="H" unicode="H" horiz-adv-x="458" 
d="M308 0v323h-158v-323h-86v712h86v-311h158v311h86v-712h-86z" />
    <glyph glyph-name="I" unicode="I" horiz-adv-x="215" 
d="M64 0v712h86v-712h-86z" />
    <glyph glyph-name="J" unicode="J" horiz-adv-x="361" 
d="M303 170q0 -41 -11 -74t-34 -56q-47 -48 -126 -48q-40 0 -72 14t-55 40l61 57q11 -14 28.5 -24t37.5 -10q36 0 60.5 25.5t24.5 75.5v542h86v-542v0z" />
    <glyph glyph-name="K" unicode="K" horiz-adv-x="439" 
d="M338 0l-126 322l-62 -123v-199h-86v712h86v-361l172 361h88l-144 -294l165 -418h-93z" />
    <glyph glyph-name="L" unicode="L" horiz-adv-x="361" 
d="M64 0v712h86v-635h189v-77h-275z" />
    <glyph glyph-name="M" unicode="M" horiz-adv-x="578" 
d="M427 0v507l-113 -333h-53l-111 325v-499h-86v712h81l144 -396l143 396h81v-712h-86z" />
    <glyph glyph-name="N" unicode="N" horiz-adv-x="477" 
d="M334 0l-184 487v-487h-86v712h80l183 -487l-1 487h86v-712h-78z" />
    <glyph glyph-name="O" unicode="O" horiz-adv-x="442" 
d="M309 356q0 63 -1 107t-4.5 73.5t-9.5 48t-15 31.5q-9 12 -23 19.5t-35 7.5t-35 -7.5t-23 -19.5q-9 -13 -15 -31.5t-9.5 -48t-4.5 -73.5t-1 -107t1 -107t4.5 -73.5t9.5 -48t15 -31.5q9 -12 23 -19.5t35 -7.5t35 7.5t23 19.5q9 13 15 31.5t9.5 48t4.5 73.5t1 107zM395 356
q0 -67 -1 -116.5t-6 -86.5t-15.5 -63.5t-28.5 -46.5q-20 -23 -50 -37t-73 -14t-72.5 14t-49.5 37q-18 20 -28.5 46.5t-16 63.5t-6.5 86.5t-1 116.5t1 116.5t6.5 86.5t16 63.5t28.5 46.5q20 23 49.5 37t72.5 14t73 -14t50 -37q18 -20 28.5 -46.5t15.5 -63.5t6 -86.5t1 -116.5
z" />
    <glyph glyph-name="P" unicode="P" horiz-adv-x="435" 
d="M307 504q0 29 -3.5 53t-12.5 41.5t-24.5 27t-40.5 9.5h-76v-262h76q49 0 65 36t16 95zM393 505q0 -111 -40 -160t-129 -49h-74v-296h-86v712h160q40 0 71.5 -10t53.5 -34t33 -64t11 -99z" />
    <glyph glyph-name="Q" unicode="Q" horiz-adv-x="442" 
d="M309 356q0 63 -1 107t-4 74t-9 48.5t-16 31.5q-9 12 -23 19t-35 7t-35 -7t-23 -19q-10 -13 -16 -31.5t-9 -48.5t-4 -74t-1 -107t1 -107t4 -74t9 -48.5t16 -31.5q9 -12 23 -19t35 -7t36 10l-46 39l41 49l41 -35q5 14 8 32t5 44t2.5 62t0.5 86zM380 -24l-57 48
q-19 -15 -44.5 -23.5t-57.5 -8.5q-43 0 -72.5 14t-49.5 37q-18 20 -28.5 46.5t-16 63.5t-6.5 86.5t-1 116.5t1 116.5t6.5 86.5t16 63.5t28.5 46.5q20 23 49.5 37t72.5 14t73 -14t50 -37q18 -20 28.5 -46.5t15.5 -63.5t6 -86.5t1 -116.5q0 -57 -1 -100.5t-4 -77.5t-9 -59.5
t-17 -45.5l57 -48z" />
    <glyph glyph-name="R" unicode="R" horiz-adv-x="455" 
d="M307 509q0 28 -3.5 51.5t-12.5 40t-24.5 25.5t-40.5 9h-76v-253h76q25 0 40.5 9t24.5 26t12.5 40t3.5 52zM326 0l-98 306h-78v-306h-86v712h161q40 0 71.5 -10t53 -33t32.5 -62.5t11 -97.5q0 -75 -19.5 -119.5t-66.5 -66.5l109 -323h-90z" />
    <glyph glyph-name="S" unicode="S" horiz-adv-x="420" 
d="M377 191q0 -56 -9 -92.5t-35 -62.5q-20 -20 -51.5 -31.5t-74.5 -11.5q-82 0 -125 43q-25 25 -34.5 59t-9.5 91h86q0 -35 5 -56.5t19 -36.5q9 -10 24 -16t35 -6q22 0 36.5 6t24.5 17q14 16 18.5 38t4.5 57q0 31 -3 52t-10.5 35.5t-21 24.5t-35.5 19l-81 33q-27 11 -46 25
t-30 34.5t-16 49t-5 69.5q0 47 13.5 84t40.5 62q44 41 113 41q39 0 68.5 -10.5t49.5 -30.5q27 -26 37 -61.5t10 -84.5h-86q0 29 -4 49t-18 37q-19 24 -58 24q-19 0 -32.5 -6t-22.5 -16q-25 -28 -25 -85q0 -26 2.5 -44t10 -31t21 -22t34.5 -18l80 -33q30 -12 49.5 -28.5
t31 -39.5t15.5 -54t4 -73z" />
    <glyph glyph-name="T" unicode="T" horiz-adv-x="367" 
d="M227 635v-635h-86v635h-120v77h325v-77h-119z" />
    <glyph glyph-name="U" unicode="U" horiz-adv-x="445" 
d="M387 162q0 -39 -12 -70t-34 -53q-23 -23 -53.5 -35t-65.5 -12q-71 0 -118 47q-22 22 -34 53t-12 70v550h86v-555q0 -42 23 -65t55 -23t55.5 23t23.5 65v555h86v-550v0z" />
    <glyph glyph-name="V" unicode="V" horiz-adv-x="404" 
d="M246 0h-88l-154 712h95l103 -573l104 573h94z" />
    <glyph glyph-name="W" unicode="W" horiz-adv-x="652" 
d="M526 0h-89l-111 573l-110 -573h-89l-123 712h95l73 -573l106 573h96l108 -573l72 573h94z" />
    <glyph glyph-name="X" unicode="X" horiz-adv-x="403" 
d="M294 0l-93 282l-92 -282h-94l136 370l-125 342h94l81 -260l82 260h94l-129 -342l140 -370h-94z" />
    <glyph glyph-name="Y" unicode="Y" horiz-adv-x="353" 
d="M219 288v-288h-86v288l-131 424h94l80 -304l80 304h95z" />
    <glyph glyph-name="Z" unicode="Z" horiz-adv-x="349" 
d="M31 0v65l198 570h-185v77h274v-65l-197 -570h197v-77h-287z" />
    <glyph glyph-name="bracketleft" unicode="[" horiz-adv-x="259" 
d="M58 -74v860h172v-71h-91v-718h91v-71h-172z" />
    <glyph glyph-name="backslash" unicode="\" horiz-adv-x="272" 
d="M189 -74l-185 860h79l185 -860h-79z" />
    <glyph glyph-name="bracketright" unicode="]" horiz-adv-x="259" 
d="M29 -74v71h91v718h-91v71h172v-860h-172z" />
    <glyph glyph-name="asciicircum" unicode="^" horiz-adv-x="455" 
d="M318 436l-90 199l-90 -199h-81l134 281h73l134 -281h-80z" />
    <glyph glyph-name="underscore" unicode="_" horiz-adv-x="444" 
d="M0 -144v61h444v-61h-444z" />
    <glyph glyph-name="grave" unicode="`" 
d="M163 586l-81 135h74l69 -135h-62z" />
    <glyph glyph-name="a" unicode="a" horiz-adv-x="375" 
d="M241 240h-46q-19 0 -32.5 -4t-25.5 -15q-11 -11 -17.5 -30.5t-6.5 -40.5q0 -41 15.5 -64t47.5 -23q29 0 47 22.5t18 58.5v96zM245 0v46q-6 -11 -14 -20t-16 -15q-12 -9 -26 -14t-35 -5q-29 0 -50 9.5t-39 29.5q-15 17 -24 46t-9 70q0 36 11.5 66.5t34.5 50.5
q20 17 44.5 26t65.5 9h53v82q0 74 -61 74q-14 0 -23 -4.5t-17 -12.5q-11 -11 -15 -25t-4 -35h-81q0 30 8.5 58.5t31.5 51.5q17 17 43.5 27.5t56.5 10.5q65 0 101 -36q19 -20 30 -47t11 -67v-376h-77z" />
    <glyph glyph-name="b" unicode="b" horiz-adv-x="387" 
d="M265 259q0 70 -3 111.5t-17 61.5q-16 22 -45 22q-26 0 -42 -16q-20 -20 -20 -60v-237q0 -41 20 -61q8 -8 19 -11.5t23 -3.5q29 0 45 22q14 20 17 61t3 111zM346 259q0 -90 -6 -145t-31 -84q-17 -20 -38.5 -29t-47.5 -9q-30 0 -56 16q-8 5 -18 14.5t-14 17.5v-40h-78v712
h81v-230q5 8 13 16t16 13q24 15 56 15q29 0 49.5 -9.5t36.5 -28.5q25 -29 31 -84t6 -145z" />
    <glyph glyph-name="c" unicode="c" horiz-adv-x="362" 
d="M329 144q-1 -37 -10.5 -66.5t-29.5 -49.5q-18 -19 -44 -27.5t-58 -8.5q-33 0 -61 11t-48 37q-24 31 -31 85.5t-7 133.5t7 133.5t31 85.5q20 26 48 37t61 11q32 0 56.5 -7t44.5 -27q23 -23 31.5 -54.5t9.5 -63.5h-80q0 16 -2.5 31.5t-13.5 28.5q-17 20 -45 20
q-30 0 -46 -22q-14 -20 -17.5 -61.5t-3.5 -111.5t3.5 -111t17.5 -61q16 -22 46 -22q27 0 44 19q11 12 14 27t3 33h80v0z" />
    <glyph glyph-name="d" unicode="d" horiz-adv-x="387" 
d="M249 378q0 21 -5.5 35.5t-15.5 24.5q-16 16 -42 16q-28 0 -44 -22q-14 -20 -17.5 -61.5t-3.5 -111.5t3.5 -111t17.5 -61q16 -22 44 -22q12 0 23 3.5t19 11.5q21 21 21 61v237zM251 0v40q-4 -8 -13.5 -17.5t-17.5 -14.5q-26 -16 -56 -16q-26 0 -47.5 9t-38.5 29
q-25 29 -31.5 84t-6.5 145t6.5 145t31.5 84q16 19 36.5 28.5t49.5 9.5q32 0 56 -15q8 -5 16 -13t13 -16v230h81v-712h-79z" />
    <glyph glyph-name="e" unicode="e" horiz-adv-x="372" 
d="M253 301q0 53 -4 85t-16 46q-8 9 -19 15.5t-27 6.5t-26.5 -6.5t-18.5 -15.5q-12 -14 -16.5 -46t-4.5 -85h132v0zM121 240q0 -62 4 -99t18 -54q8 -9 18.5 -15.5t26.5 -6.5q28 0 46 20q18 21 18 59h80q-1 -35 -10.5 -63t-30.5 -51q-19 -20 -45.5 -29t-57.5 -9
q-34 0 -58 9.5t-44 30.5q-30 31 -38 88t-8 139t7.5 139t37.5 88q39 40 102 40q32 0 57 -9t45 -31q32 -35 38.5 -98.5t6.5 -147.5h-213z" />
    <glyph glyph-name="f" unicode="f" horiz-adv-x="254" 
d="M157 455v-455h-81v455h-59v63h59v50q0 41 11.5 69t33.5 46q24 20 53.5 26.5t62.5 6.5v-73q-80 0 -80 -78v-47h80v-63h-80z" />
    <glyph glyph-name="g" unicode="g" horiz-adv-x="387" 
d="M249 378q0 21 -5 35t-15 24q-17 17 -43 17q-15 0 -25.5 -6t-18.5 -16q-14 -18 -17.5 -57.5t-3.5 -103.5t3.5 -103.5t17.5 -57.5q8 -10 18.5 -16t25.5 -6q26 0 43 17q9 10 14.5 24.5t5.5 34.5v214zM330 -13q0 -57 -10 -89.5t-32 -55.5q-18 -19 -45 -29t-57 -10t-57 9
t-47 28q-22 22 -30.5 50t-8.5 62h80q0 -19 3.5 -35t14.5 -27q17 -17 44 -17q14 0 25 5.5t19 13.5q11 12 15.5 33t4.5 58v78q-5 -8 -13 -16.5t-16 -13.5q-21 -14 -54 -14q-29 0 -48.5 8.5t-36.5 28.5q-24 28 -32.5 77.5t-8.5 139.5t8.5 140t32.5 78q16 19 35.5 28t49.5 9
t56 -16q8 -5 16 -13t13 -16v37h79v-531v0z" />
    <glyph glyph-name="h" unicode="h" horiz-adv-x="395" 
d="M261 0v381q0 36 -18 54t-44 18t-43.5 -18t-17.5 -54v-381h-81v712h81v-231q5 8 13 16t16 13q26 16 56 16q29 0 50 -9.5t38 -28.5q16 -17 23.5 -41t7.5 -66v-381h-81z" />
    <glyph glyph-name="i" unicode="i" horiz-adv-x="195" 
d="M50 610v94h95v-94h-95zM57 0v509h81v-509h-81z" />
    <glyph glyph-name="j" unicode="j" horiz-adv-x="195" 
d="M50 610v94h95v-94h-95zM138 -46q0 -43 -12.5 -71t-33.5 -45q-23 -20 -51.5 -26t-61.5 -6v73q38 0 58 17t20 61v552h81v-555v0z" />
    <glyph glyph-name="k" unicode="k" horiz-adv-x="395" 
d="M293 0l-99 244l-56 -89v-155h-81v712h81v-440l147 246h86l-126 -202l138 -316h-90z" />
    <glyph glyph-name="l" unicode="l" horiz-adv-x="228" 
d="M211 0q-33 0 -61 6t-51 26q-21 17 -33.5 45t-12.5 71v564h81v-561q0 -78 77 -78v-73v0z" />
    <glyph glyph-name="m" unicode="m" horiz-adv-x="599" 
d="M464 0v381q0 36 -17.5 54t-43.5 18t-43.5 -18t-17.5 -54v-381h-81v381q0 36 -18 54t-44 18t-43.5 -18t-17.5 -54v-381h-81v518h78v-40q5 9 14.5 18t17.5 14q26 16 56 16t56.5 -15t42.5 -39q8 11 19 21t22 17q12 8 28.5 12t30.5 4q34 0 55 -9.5t38 -28.5q16 -17 23 -41
t7 -66v-381h-81z" />
    <glyph glyph-name="n" unicode="n" horiz-adv-x="395" 
d="M261 0v381q0 36 -18 54t-44 18t-43.5 -18t-17.5 -54v-381h-81v518h78v-40q5 9 14.5 18t17.5 14q26 16 56 16q29 0 50 -9.5t38 -28.5q16 -17 23.5 -41t7.5 -66v-381h-81z" />
    <glyph glyph-name="o" unicode="o" horiz-adv-x="375" 
d="M253 259q0 70 -3 111.5t-17 61.5q-16 22 -46 22q-29 0 -45 -22q-14 -20 -17.5 -61.5t-3.5 -111.5t3.5 -111t17.5 -61q16 -22 45 -22q30 0 46 22q14 20 17 61t3 111zM334 259q0 -79 -6.5 -133.5t-30.5 -85.5q-20 -26 -47.5 -37t-62.5 -11t-62 11t-47 37q-24 31 -31 85.5
t-7 133.5t7 133.5t31 85.5q20 26 47 37t62 11t62.5 -11t47.5 -37q24 -31 30.5 -85.5t6.5 -133.5z" />
    <glyph glyph-name="p" unicode="p" horiz-adv-x="387" 
d="M265 259q0 70 -3 111.5t-17 61.5q-16 22 -45 22q-26 0 -42 -16q-20 -20 -20 -60v-237q0 -41 20 -61q8 -8 19 -11.5t23 -3.5q29 0 45 22q14 20 17 61t3 111zM346 259q0 -90 -6 -145t-31 -84q-16 -19 -36.5 -28.5t-49.5 -9.5q-32 0 -56 15q-8 5 -16 13t-13 16v-230h-81v712
h78v-40q4 8 14 17.5t18 14.5q26 16 56 16q26 0 47.5 -9t38.5 -29q25 -29 31 -84t6 -145z" />
    <glyph glyph-name="q" unicode="q" horiz-adv-x="387" 
d="M249 378q0 21 -5.5 35.5t-15.5 24.5q-16 16 -42 16q-28 0 -44 -22q-14 -20 -17.5 -61.5t-3.5 -111.5t3.5 -111t17.5 -61q16 -22 44 -22q12 0 23 3.5t19 11.5q21 21 21 61v237zM249 -194v230q-5 -8 -13 -16t-16 -13q-24 -15 -56 -15q-29 0 -49.5 9.5t-36.5 28.5
q-25 29 -31.5 84t-6.5 145t6.5 145t31.5 84q17 20 38.5 29t47.5 9q30 0 56 -16q8 -5 17.5 -14.5t13.5 -17.5v40h79v-712h-81z" />
    <glyph glyph-name="r" unicode="r" horiz-adv-x="272" 
d="M232 448q-42 0 -68 -25t-26 -70v-353h-81v518h78v-55q6 11 16 20.5t20 16.5q37 26 85 26v-78h-24z" />
    <glyph glyph-name="s" unicode="s" horiz-adv-x="359" 
d="M328 141q0 -35 -12 -61.5t-32 -46.5q-21 -22 -47.5 -31.5t-58.5 -9.5t-58.5 10t-45.5 30q-44 45 -44 114h80q0 -40 22 -63q9 -9 21.5 -13.5t24.5 -4.5q30 0 49 19q20 20 20 52q0 27 -13 47q-8 11 -19 20t-27 17l-67 34q-50 25 -71 60q-16 28 -16 68q0 34 11.5 59.5
t31.5 45.5t46 29.5t56 9.5q64 0 101 -37q42 -40 42 -114h-80q0 23 -4.5 37t-14.5 25q-9 10 -20.5 14t-23.5 4q-28 0 -45 -17q-19 -19 -19 -50q0 -22 9 -38q11 -19 43 -34l66 -33q52 -25 73 -59q22 -33 22 -83z" />
    <glyph glyph-name="t" unicode="t" horiz-adv-x="260" 
d="M240 0q-35 0 -64.5 5.5t-54.5 26.5q-45 37 -45 116v307h-59v63h59v142h81v-142h80v-63h-80v-304q0 -42 21 -60t62 -18v-73v0z" />
    <glyph glyph-name="u" unicode="u" horiz-adv-x="395" 
d="M260 0v40q-5 -9 -14.5 -18t-17.5 -14q-26 -16 -56 -16q-29 0 -50 9.5t-38 28.5q-16 17 -23.5 41t-7.5 66v381h81v-381q0 -36 18 -54t44 -18t43.5 18t17.5 54v381h81v-518h-78z" />
    <glyph glyph-name="v" unicode="v" horiz-adv-x="343" 
d="M215 0h-86l-125 518h89l79 -390l78 390h89z" />
    <glyph glyph-name="w" unicode="w" horiz-adv-x="526" 
d="M413 0h-82l-70 379l-68 -379h-82l-107 518h92l59 -390l69 390h73l73 -390l60 390h92z" />
    <glyph glyph-name="x" unicode="x" horiz-adv-x="356" 
d="M253 0l-75 187l-75 -187h-90l118 264l-112 254h90l69 -181l69 181h90l-114 -254l120 -264h-90z" />
    <glyph glyph-name="y" unicode="y" horiz-adv-x="345" 
d="M193 -83q-8 -35 -24 -56.5t-38 -33.5t-50 -16.5t-60 -4.5v72q38 0 61 12.5t32 47.5l16 63l-126 517h89l79 -389l78 389h89z" />
    <glyph glyph-name="z" unicode="z" horiz-adv-x="301" 
d="M24 0v62l163 384h-152v72h242v-62l-163 -383h163v-73h-253z" />
    <glyph glyph-name="braceleft" unicode="{" horiz-adv-x="311" 
d="M240 -74q-26 0 -49.5 9t-40.5 26t-26 40.5t-9 59.5v192q0 32 -16.5 49.5t-41.5 17.5h-28v72h28q25 0 41.5 17.5t16.5 49.5v192q0 36 9 59.5t26 40.5t40.5 26t49.5 9h42v-73h-28q-25 0 -41.5 -17t-16.5 -49v-185q0 -32 -7.5 -52.5t-21.5 -34.5q-8 -8 -17 -12t-16 -7
q8 -2 16.5 -6.5t16.5 -12.5q14 -14 21.5 -34.5t7.5 -52.5v-185q0 -32 16.5 -49t41.5 -17h28v-73h-42z" />
    <glyph glyph-name="bar" unicode="|" horiz-adv-x="290" 
d="M105 -74v860h81v-860h-81z" />
    <glyph glyph-name="braceright" unicode="}" horiz-adv-x="311" 
d="M254 320q-25 0 -41 -17.5t-16 -49.5v-192q0 -36 -9.5 -59.5t-26.5 -40.5t-40.5 -26t-49.5 -9h-42v73h28q25 0 42 17t17 49v185q0 32 7 52.5t21 34.5q8 8 17.5 12t16.5 7q-8 2 -17 6.5t-17 12.5q-14 14 -21 34.5t-7 52.5v185q0 32 -17 49t-42 17h-28v73h42q26 0 49.5 -9
t40.5 -26t26.5 -40.5t9.5 -59.5v-192q0 -32 16 -49.5t41 -17.5h28v-72h-28z" />
    <glyph glyph-name="asciitilde" unicode="~" horiz-adv-x="444" 
d="M410 285q-34 -34 -59 -47t-54 -13q-24 0 -43.5 7t-40.5 18q-16 8 -30.5 13.5t-32.5 5.5t-32 -6.5t-34 -26.5l-49 48q34 34 58.5 47t53.5 13q24 0 44 -7t41 -18q16 -8 30.5 -13.5t32.5 -5.5t31.5 7t33.5 27l50 -49v0z" />
    <glyph glyph-name="Euro" horiz-adv-x="474" 
d="M431 176q-1 -45 -15 -83t-40 -62q-21 -20 -47.5 -29.5t-62.5 -9.5q-43 0 -72.5 14t-49.5 37q-13 14 -22 31.5t-15 41.5t-9 56t-4 77h-61v62h59v90h-59v62h61q1 45 4 77t9 56t15 41.5t22 31.5q20 23 49.5 37t72.5 14q37 0 64.5 -11t48.5 -31q25 -24 38 -60.5t14 -81.5h-86
q0 20 -3.5 39t-12.5 34t-24 24.5t-39 9.5q-21 0 -35.5 -7.5t-23.5 -19.5q-7 -9 -12 -20t-8 -28t-5 -42t-2 -63h120v-62h-121v-90h121v-62h-120q0 -38 2 -63t5 -42t8 -28t12 -20q9 -11 23.5 -19t35.5 -8q24 0 39 9.5t24 24.5t12.5 34t3.5 39h86v0z" />
    <glyph glyph-name="Euro" unicode="&#x20ac;" horiz-adv-x="474" 
d="M431 176q-1 -45 -15 -83t-40 -62q-21 -20 -47.5 -29.5t-62.5 -9.5q-43 0 -72.5 14t-49.5 37q-13 14 -22 31.5t-15 41.5t-9 56t-4 77h-61v62h59v90h-59v62h61q1 45 4 77t9 56t15 41.5t22 31.5q20 23 49.5 37t72.5 14q37 0 64.5 -11t48.5 -31q25 -24 38 -60.5t14 -81.5h-86
q0 20 -3.5 39t-12.5 34t-24 24.5t-39 9.5q-21 0 -35.5 -7.5t-23.5 -19.5q-7 -9 -12 -20t-8 -28t-5 -42t-2 -63h120v-62h-121v-90h121v-62h-120q0 -38 2 -63t5 -42t8 -28t12 -20q9 -11 23.5 -19t35.5 -8q24 0 39 9.5t24 24.5t12.5 34t3.5 39h86v0z" />
    <glyph glyph-name="Zcaron" horiz-adv-x="349" 
d="M212 757h-68l-92 135h67l59 -87l60 87h67zM31 0v65l198 570h-185v77h274v-65l-197 -570h197v-77h-287z" />
    <glyph glyph-name="Zcaron" unicode="&#x17d;" horiz-adv-x="349" 
d="M212 757h-68l-92 135h67l59 -87l60 87h67zM31 0v65l198 570h-185v77h274v-65l-197 -570h197v-77h-287z" />
    <glyph glyph-name="zcaron" horiz-adv-x="301" 
d="M191 582h-68l-92 135h67l59 -87l60 87h67zM24 0v62l163 384h-152v72h242v-62l-163 -383h163v-73h-253z" />
    <glyph glyph-name="zcaron" unicode="&#x17e;" horiz-adv-x="301" 
d="M191 582h-68l-92 135h67l59 -87l60 87h67zM24 0v62l163 384h-152v72h242v-62l-163 -383h163v-73h-253z" />
    <glyph glyph-name="nonbreakingspace" unicode="&#xa0;" horiz-adv-x="187" 
 />
    <glyph glyph-name="exclamdown" unicode="&#xa1;" horiz-adv-x="242" 
d="M59 419v99h99v-99h-99zM68 -194v519h81v-519h-81z" />
    <glyph glyph-name="cent" unicode="&#xa2;" horiz-adv-x="367" 
d="M159 537q-5 -2 -8 -5.5t-6 -7.5q-14 -19 -17 -58t-3 -106t3 -106t17 -58q3 -4 6 -7.5t8 -5.5v354zM332 250q-1 -35 -10.5 -62.5t-29.5 -47.5q-26 -24 -69 -32v-108h-64v107q-49 8 -78 44q-24 29 -30.5 81.5t-6.5 127.5t6.5 127.5t30.5 81.5q29 36 78 44v99h64v-99
q20 -3 37 -10t31 -21q23 -22 31.5 -52t9.5 -61h-80q0 15 -2.5 30.5t-13.5 27.5l-6 6t-7 5v-355q8 6 12 10q11 11 14 25.5t3 31.5h80v0z" />
    <glyph glyph-name="sterling" unicode="&#xa3;" horiz-adv-x="427" 
d="M97 0v338h-64v62h64v144q0 41 13.5 74t36.5 55.5t54.5 34.5t66.5 12q38 0 71 -13.5t56 -39.5l-60 -57q-11 13 -26.5 23t-40.5 10q-35 0 -60 -25.5t-25 -71.5v-146h85v-62h-85v-261h212v-77h-298z" />
    <glyph glyph-name="currency" unicode="&#xa4;" horiz-adv-x="596" 
d="M401 278q0 22 -8 41t-22 33t-33 22t-40 8q-44 0 -74 -30t-30 -74q0 -21 8 -40t22 -33t33 -22t41 -8q21 0 40 8t33 22t22 33t8 40zM449 76l-56 57q-20 -14 -44.5 -22t-50.5 -8q-27 0 -51.5 8t-44.5 22l-56 -57l-51 51l57 56q-14 20 -21.5 44.5t-7.5 50.5q0 27 7.5 51.5
t21.5 44.5l-57 56l51 51l56 -56q42 28 96 28q53 0 95 -28l56 56l51 -51l-57 -56q14 -20 22 -44.5t8 -51.5q0 -26 -8 -50.5t-22 -44.5l57 -56z" />
    <glyph glyph-name="yen" unicode="&#xa5;" horiz-adv-x="353" 
d="M253 405h55v-62h-74l-17 -55v-40h91v-62h-91v-186h-82v186h-91v62h91v40l-16 55h-75v62h55l-92 307h91l78 -304l79 304h90z" />
    <glyph glyph-name="brokenbar" unicode="&#xa6;" horiz-adv-x="290" 
d="M105 -73v348h81v-348h-81zM105 437v348h81v-348h-81z" />
    <glyph glyph-name="section" unicode="&#xa7;" horiz-adv-x="409" 
d="M276 271q0 44 -4 70t-21 43q-18 18 -47 18q-27 0 -46 -17q-16 -15 -20.5 -41t-4.5 -73q0 -42 4 -70t21 -44q20 -18 46 -18q29 0 47 18q17 16 21 43.5t4 70.5zM357 271q0 -31 -2 -54t-7 -41t-13.5 -32.5t-22.5 -26.5q-16 -14 -40 -20q18 -11 32.5 -23t25.5 -31
q9 -16 14 -36t5 -40q0 -67 -41 -108q-20 -21 -47.5 -30t-59.5 -9q-31 0 -57.5 10.5t-45.5 29.5q-42 42 -42 105h82q0 -33 20 -54q8 -9 19.5 -13.5t23.5 -4.5q30 0 48 18q17 19 17 51q0 28 -12 45q-8 12 -19.5 20.5t-25.5 15.5l-69 34q-12 6 -23.5 13t-20.5 16
q-15 15 -24 31.5t-13.5 36t-5.5 43.5t-1 54t1.5 52.5t6.5 40t14 31t23 26.5q8 7 18 13t23 9q-19 11 -34.5 24t-25.5 30q-17 29 -17 73q0 32 11 57.5t31 45.5t46.5 29.5t56.5 9.5q58 0 96 -33q22 -20 33.5 -48t11.5 -61h-81q0 15 -4 28.5t-14 24.5q-17 17 -42 17
q-27 0 -43 -16q-10 -9 -14.5 -21.5t-4.5 -26.5q0 -26 10 -43q13 -20 41 -34l69 -34q13 -6 28 -15t24 -18q13 -14 21.5 -28t12.5 -32t5.5 -42.5t1.5 -58.5z" />
    <glyph glyph-name="dieresis" unicode="&#xa8;" 
d="M226 601v82h81v-82h-81zM69 601v82h82v-82h-82z" />
    <glyph glyph-name="copyright" unicode="&#xa9;" horiz-adv-x="853" 
d="M526 265q-2 -59 -30 -87q-26 -26 -68 -26q-26 0 -44 9.5t-30 23.5q-20 24 -24.5 67t-4.5 103t4.5 103.5t24.5 67.5q12 14 30 23.5t44 9.5q41 0 68 -27q29 -29 30 -86h-54q0 15 -2 27t-10 21q-12 15 -32 15q-12 0 -20 -4.5t-13 -11.5q-11 -15 -13.5 -49.5t-2.5 -88.5
t2.5 -88t13.5 -49q5 -7 13.5 -12t19.5 -5q20 0 32 14q8 9 10 21.5t2 28.5h54v0zM730 356q0 65 -23.5 121.5t-64.5 98t-96.5 65.5t-119.5 24t-119 -24t-96 -65.5t-64.5 -98t-23.5 -121.5t23.5 -121.5t64.5 -98t96 -65.5t119 -24t119.5 24t96.5 65.5t64.5 98t23.5 121.5z
M788 356q0 -75 -28.5 -141t-77.5 -115t-115 -77.5t-141 -28.5t-141 28.5t-115 77.5t-77.5 115t-28.5 141t28.5 141t77.5 115t115 77.5t141 28.5t141 -28.5t115 -77.5t77.5 -115t28.5 -141z" />
    <glyph glyph-name="ordfeminine" unicode="&#xaa;" horiz-adv-x="314" 
d="M200 491h-37q-14 0 -25.5 -2.5t-19.5 -10.5q-21 -19 -21 -53q0 -27 11.5 -46t39.5 -19q22 0 37 18.5t15 47.5v65zM204 307v33q-6 -9 -13.5 -15.5t-12.5 -9.5q-20 -13 -48 -13q-46 0 -74 31q-13 14 -20 35.5t-7 53.5q0 29 10.5 52t29.5 40q15 13 36 20t53 7h42v60
q0 25 -12.5 40.5t-36.5 15.5q-20 0 -34 -14q-10 -11 -12 -23.5t-2 -23.5h-68q0 25 7 47.5t27 41.5q15 14 36 22.5t46 8.5q24 0 45.5 -7t37.5 -23q15 -15 24.5 -36.5t9.5 -53.5v-289h-64z" />
    <glyph glyph-name="guillemotleft" unicode="&#xab;" horiz-adv-x="392" 
d="M193 272l148 229v-127l-69 -102l69 -103v-127zM26 272l148 229v-127l-68 -102l68 -103v-127z" />
    <glyph glyph-name="logicalnot" unicode="&#xac;" horiz-adv-x="444" 
d="M317 146v107h-267v77h344v-184h-77z" />
    <glyph glyph-name="registered" unicode="&#xae;" horiz-adv-x="853" 
d="M478 439q0 20 -2 32.5t-10 21.5q-11 11 -29 11h-48v-130h48q17 0 28 11q8 9 10.5 21.5t2.5 32.5zM488 157l-52 168h-47v-168h-54v397h102q44 0 68 -24q16 -16 21.5 -37.5t5.5 -53.5t-5 -52t-21 -36q-8 -8 -20 -15l58 -179h-56zM730 356q0 65 -23.5 121.5t-64.5 98
t-96.5 65.5t-119.5 24t-119 -24t-96 -65.5t-64.5 -98t-23.5 -121.5t23.5 -121.5t64.5 -98t96 -65.5t119 -24t119.5 24t96.5 65.5t64.5 98t23.5 121.5zM788 356q0 -75 -28.5 -141t-77.5 -115t-115 -77.5t-141 -28.5t-141 28.5t-115 77.5t-77.5 115t-28.5 141t28.5 141
t77.5 115t115 77.5t141 28.5t141 -28.5t115 -77.5t77.5 -115t28.5 -141z" />
    <glyph glyph-name="macron" unicode="&#xaf;" 
d="M74 612v57h229v-57h-229z" />
    <glyph glyph-name="macron" unicode="&#x2c9;" 
d="M74 612v57h229v-57h-229z" />
    <glyph glyph-name="degree" unicode="&#xb0;" horiz-adv-x="396" 
d="M275 575q0 33 -22 55.5t-55 22.5t-55 -22t-22 -56t22 -56.5t55 -22.5t55 22.5t22 56.5zM347 575q0 -31 -12 -58t-32 -47.5t-47 -32t-58 -11.5t-58 11.5t-47.5 32t-32 47.5t-11.5 58t11.5 58t32 47t47.5 31.5t58 11.5t58 -11.5t47 -31.5t32 -47t12 -58z" />
    <glyph glyph-name="plusminus" unicode="&#xb1;" horiz-adv-x="444" 
d="M46 24v77h352v-77h-352zM261 301v-137h-77v137h-138v77h138v137h77v-137h137v-77h-137z" />
    <glyph glyph-name="twosuperior" unicode="&#xb2;" horiz-adv-x="318" 
d="M51 285v45l135 212q11 17 16.5 35t5.5 41t-13.5 36.5t-36.5 13.5q-49 0 -49 -56v-24h-60v22q0 29 6.5 47.5t22.5 32.5q30 27 80 27q26 0 44 -5.5t34 -18.5q15 -12 24 -31.5t9 -45.5q0 -48 -30 -95l-121 -189h151v-47h-218z" />
    <glyph glyph-name="threesuperior" unicode="&#xb3;" horiz-adv-x="318" 
d="M266 402q0 -35 -6 -56.5t-26 -39.5q-14 -13 -35.5 -19.5t-44.5 -6.5q-24 0 -45 6.5t-36 20.5q-14 13 -21.5 31t-7.5 52v15h61v-16q0 -20 2.5 -30t10.5 -17q15 -13 36 -13q23 0 36 13q8 9 11.5 25.5t3.5 37.5q0 22 -2.5 37.5t-10.5 25.5q-13 16 -38 16h-27v47h27
q11 0 18.5 3t14.5 9q12 11 14 28t2 31q0 15 -2.5 30t-12.5 25q-11 11 -34 11q-22 0 -35 -13q-7 -7 -9.5 -17.5t-2.5 -24.5v-19h-61v17q0 30 7 48t21 31q30 27 80 27q27 0 46 -7t32 -19q31 -30 31 -86q0 -23 -3.5 -39.5t-13.5 -30.5q-7 -9 -15 -16t-19 -12q25 -9 38 -30
q10 -14 13 -32t3 -43z" />
    <glyph glyph-name="acute" unicode="&#xb4;" 
d="M213 586h-61l68 135h74z" />
    <glyph glyph-name="mu" unicode="&#xb5;" horiz-adv-x="399" 
d="M262 0v40q-5 -9 -14 -18t-17 -14q-26 -16 -58 -16q-13 0 -24 4.5t-15 9.5v-200h-78v712h81v-381q0 -36 17.5 -54t43.5 -18t44 18t18 54v381h81v-518h-79z" />
    <glyph glyph-name="mu" unicode="&#x3bc;" horiz-adv-x="399" 
d="M262 0v40q-5 -9 -14 -18t-17 -14q-26 -16 -58 -16q-13 0 -24 4.5t-15 9.5v-200h-78v712h81v-381q0 -36 17.5 -54t43.5 -18t44 18t18 54v381h81v-518h-79z" />
    <glyph glyph-name="paragraph" unicode="&#xb6;" horiz-adv-x="570" 
d="M431 -194v830h-111v-830h-81v490h-54q-68 0 -106 48t-38 160t38 160t106 48h327v-906h-81z" />
    <glyph glyph-name="periodcentered" unicode="&#xb7;" horiz-adv-x="266" 
d="M62 233v141h141v-141h-141z" />
    <glyph glyph-name="periodcentered" unicode="&#x22c5;" horiz-adv-x="266" 
d="M62 233v141h141v-141h-141z" />
    <glyph glyph-name="periodcentered" unicode="&#x2219;" horiz-adv-x="266" 
d="M62 233v141h141v-141h-141z" />
    <glyph glyph-name="cedilla" unicode="&#xb8;" 
d="M176 -182h-64l57 144h57z" />
    <glyph glyph-name="onesuperior" unicode="&#xb9;" horiz-adv-x="318" 
d="M140 285v364l-72 -47v61l72 49h60v-427h-60z" />
    <glyph glyph-name="ordmasculine" unicode="&#xba;" horiz-adv-x="313" 
d="M208 508q0 45 -3 80t-14 51q-14 17 -35 17q-23 0 -35 -17q-11 -16 -13.5 -51t-2.5 -80t2.5 -80t13.5 -51q12 -16 35 -16q22 0 35 16q11 16 14 51t3 80zM276 508q0 -61 -5.5 -103.5t-25.5 -66.5q-17 -20 -39 -28.5t-50 -8.5t-49.5 8.5t-38.5 28.5q-20 24 -25.5 66.5
t-5.5 103.5t5.5 103.5t25.5 66.5q17 20 38.5 29t49.5 9t50 -9t39 -29q20 -24 25.5 -66.5t5.5 -103.5z" />
    <glyph glyph-name="guillemotright" unicode="&#xbb;" horiz-adv-x="392" 
d="M51 42v127l69 103l-69 102v127l148 -229zM218 42v127l68 103l-68 102v127l148 -229z" />
    <glyph glyph-name="onequarter" unicode="&#xbc;" horiz-adv-x="793" 
d="M139 285v364l-71 -47v61l72 49h60v-427h-61zM710 63v-63h-60v63h-147v49l117 315h59l-115 -315h86v87h60v-87h33v-49h-33zM293 0h-64l247 712h64z" />
    <glyph glyph-name="onehalf" unicode="&#xbd;" horiz-adv-x="793" 
d="M139 285v364l-71 -47v61l72 49h60v-427h-61zM527 0v45l135 212q11 17 16.5 35t5.5 41t-13.5 36.5t-36.5 13.5q-49 0 -49 -56v-24h-60v22q0 29 6.5 47.5t22.5 32.5q30 27 80 27q26 0 44 -5.5t34 -18.5q15 -12 24 -31.5t9 -45.5q0 -48 -30 -95l-121 -189h151v-47h-218z
M293 0h-64l247 712h64z" />
    <glyph glyph-name="threequarters" unicode="&#xbe;" horiz-adv-x="793" 
d="M710 63v-63h-60v63h-148v49l118 315h59l-115 -315h86v87h60v-87h33v-49h-33zM293 0h-64l247 712h64zM266 402q0 -35 -6 -56.5t-26 -39.5q-14 -13 -35.5 -19.5t-44.5 -6.5q-24 0 -45 6.5t-36 20.5q-14 13 -21.5 31t-7.5 52v15h61v-16q0 -20 2.5 -30t10.5 -17
q15 -13 36 -13q23 0 36 13q8 9 11.5 25.5t3.5 37.5q0 22 -2.5 37.5t-10.5 25.5q-13 16 -38 16h-27v47h27q11 0 18.5 3t14.5 9q12 11 14 28t2 31q0 15 -2.5 30t-12.5 25q-11 11 -34 11q-22 0 -35 -13q-7 -7 -9.5 -17.5t-2.5 -24.5v-19h-61v17q0 30 7 48t21 31q30 27 80 27
q27 0 46 -7t32 -19q31 -30 31 -86q0 -23 -3.5 -39.5t-13.5 -30.5q-7 -9 -15 -16t-19 -12q25 -9 38 -30q10 -14 13 -32t3 -43z" />
    <glyph glyph-name="questiondown" unicode="&#xbf;" horiz-adv-x="400" 
d="M141 419v99h99v-99h-99zM344 -26q0 -42 -9.5 -75.5t-33.5 -56.5q-20 -19 -47 -30.5t-62 -11.5q-69 0 -110 41q-23 23 -33.5 55.5t-10.5 86.5q0 38 6.5 65.5t24.5 53.5l59 85q22 32 22 70v68h81v-78q0 -23 -8 -44.5t-20 -39.5l-58 -85q-17 -24 -21.5 -45.5t-4.5 -51.5
q0 -33 5.5 -53.5t18.5 -34.5q18 -20 49 -20q29 0 48 19q15 16 19 38t4 44h81v0z" />
    <glyph glyph-name="Agrave" unicode="&#xc0;" horiz-adv-x="424" 
d="M188 761l-81 135h74l69 -135h-62zM212 573l-67 -328h133zM328 0l-34 168h-165l-34 -168h-90l166 712h83l165 -712h-91z" />
    <glyph glyph-name="Aacute" unicode="&#xc1;" horiz-adv-x="424" 
d="M237 761h-61l68 135h74zM212 573l-67 -328h133zM328 0l-34 168h-165l-34 -168h-90l166 712h83l165 -712h-91z" />
    <glyph glyph-name="Acircumflex" unicode="&#xc2;" horiz-adv-x="424" 
d="M273 761l-60 87l-59 -87h-67l93 135h67l92 -135h-66zM212 573l-67 -328h133zM328 0l-34 168h-165l-34 -168h-90l166 712h83l165 -712h-91z" />
    <glyph glyph-name="Atilde" unicode="&#xc3;" horiz-adv-x="424" 
d="M347 813q-26 -26 -44.5 -34t-36.5 -8q-17 0 -29.5 4t-27.5 13q-23 15 -43 15q-10 0 -19.5 -3.5t-25.5 -19.5l-37 37q26 26 43.5 34.5t36.5 8.5q17 0 29.5 -3.5t28.5 -13.5q11 -7 21.5 -11.5t21.5 -4.5q9 0 18.5 4t25.5 20l38 -38v0zM212 573l-67 -328h133zM328 0l-34 168
h-165l-34 -168h-90l166 712h83l165 -712h-91z" />
    <glyph glyph-name="Adieresis" unicode="&#xc4;" horiz-adv-x="424" 
d="M251 776v82h81v-82h-81zM94 776v82h82v-82h-82zM212 573l-67 -328h133zM328 0l-34 168h-165l-34 -168h-90l166 712h83l165 -712h-91z" />
    <glyph glyph-name="Aring" unicode="&#xc5;" horiz-adv-x="424" 
d="M262 852q0 20 -14.5 34.5t-34.5 14.5t-34.5 -14.5t-14.5 -34.5t14.5 -35t34.5 -15t34.5 15t14.5 35zM212 573l-67 -328h133zM311 852q0 -41 -28.5 -69.5t-69.5 -28.5t-69 28.5t-28 69.5t28 69t69 28t69.5 -28t28.5 -69zM328 0l-34 168h-165l-34 -168h-90l166 712h83
l165 -712h-91z" />
    <glyph glyph-name="AE" unicode="&#xc6;" horiz-adv-x="640" 
d="M324 635l-136 -385h136v385zM324 0v172h-163l-61 -172h-95l263 712h330v-77h-188v-239h162v-77h-162v-242h188v-77h-274z" />
    <glyph glyph-name="Ccedilla" unicode="&#xc7;" horiz-adv-x="423" 
d="M202 -182h-64l57 144h57zM386 176q-1 -45 -15 -83t-40 -62q-21 -20 -47.5 -29.5t-62.5 -9.5q-43 0 -72.5 14t-49.5 37q-18 20 -28.5 46.5t-16 63.5t-6.5 86.5t-1 116.5t1 116.5t6.5 86.5t16 63.5t28.5 46.5q20 23 49.5 37t72.5 14q37 0 64.5 -11t48.5 -31
q25 -24 37.5 -60.5t13.5 -81.5h-86q0 23 -5 45t-17 37q-9 11 -22.5 18t-33.5 7q-21 0 -35 -7.5t-23 -19.5q-9 -13 -15 -31.5t-9.5 -48t-4.5 -73.5t-1 -107t1 -107t4.5 -73.5t9.5 -48t15 -31.5q9 -12 23 -19.5t35 -7.5q20 0 33.5 7.5t22.5 18.5q12 15 17.5 36.5t5.5 44.5h86
v0z" />
    <glyph glyph-name="Egrave" unicode="&#xc8;" horiz-adv-x="380" 
d="M179 761l-81 135h74l69 -135h-62zM64 0v712h275v-77h-189v-239h163v-77h-163v-242h189v-77h-275z" />
    <glyph glyph-name="Eacute" unicode="&#xc9;" horiz-adv-x="380" 
d="M229 761h-61l68 135h74zM64 0v712h275v-77h-189v-239h163v-77h-163v-242h189v-77h-275z" />
    <glyph glyph-name="Ecircumflex" unicode="&#xca;" horiz-adv-x="380" 
d="M264 761l-60 87l-59 -87h-67l93 135h67l92 -135h-66zM64 0v712h275v-77h-189v-239h163v-77h-163v-242h189v-77h-275z" />
    <glyph glyph-name="Edieresis" unicode="&#xcb;" horiz-adv-x="380" 
d="M242 776v82h81v-82h-81zM85 776v82h82v-82h-82zM64 0v712h275v-77h-189v-239h163v-77h-163v-242h189v-77h-275z" />
    <glyph glyph-name="Igrave" unicode="&#xcc;" horiz-adv-x="215" 
d="M88 761l-81 135h74l69 -135h-62zM64 0v712h86v-712h-86z" />
    <glyph glyph-name="Iacute" unicode="&#xcd;" horiz-adv-x="215" 
d="M134 761h-61l68 135h74zM64 0v712h86v-712h-86z" />
    <glyph glyph-name="Icircumflex" unicode="&#xce;" horiz-adv-x="215" 
d="M167 761l-60 87l-59 -87h-67l93 135h67l92 -135h-66zM64 0v712h86v-712h-86z" />
    <glyph glyph-name="Idieresis" unicode="&#xcf;" horiz-adv-x="215" 
d="M146 776v82h81v-82h-81zM-11 776v82h82v-82h-82zM64 0v712h86v-712h-86z" />
    <glyph glyph-name="Eth" unicode="&#xd0;" horiz-adv-x="459" 
d="M326 356q0 61 -1 103.5t-4 71t-8.5 46.5t-15.5 31q-9 12 -24.5 19.5t-36.5 7.5h-75v-243h81v-69h-81v-246h75q21 0 36.5 7.5t24.5 19.5q10 13 15.5 31t8.5 46.5t4 71t1 103.5zM412 356q0 -66 -1 -114.5t-6 -84.5t-15.5 -61.5t-28.5 -45.5q-20 -22 -49.5 -36t-72.5 -14
h-164v323h-52v69h52v320h164q43 0 72.5 -14t49.5 -36q18 -20 28.5 -45.5t15.5 -61.5t6 -84.5t1 -114.5z" />
    <glyph glyph-name="Ntilde" unicode="&#xd1;" horiz-adv-x="477" 
d="M376 813q-26 -26 -44.5 -34t-36.5 -8q-17 0 -29.5 4t-27.5 13q-23 15 -43 15q-10 0 -19.5 -3.5t-25.5 -19.5l-37 37q26 26 43.5 34.5t36.5 8.5q17 0 29.5 -3.5t28.5 -13.5q11 -7 21.5 -11.5t21.5 -4.5q9 0 18.5 4t25.5 20l38 -38v0zM334 0l-184 487v-487h-86v712h80
l183 -487l-1 487h86v-712h-78z" />
    <glyph glyph-name="Ograve" unicode="&#xd2;" horiz-adv-x="442" 
d="M192 761l-81 135h74l69 -135h-62zM309 356q0 63 -1 107t-4.5 73.5t-9.5 48t-15 31.5q-9 12 -23 19.5t-35 7.5t-35 -7.5t-23 -19.5q-9 -13 -15 -31.5t-9.5 -48t-4.5 -73.5t-1 -107t1 -107t4.5 -73.5t9.5 -48t15 -31.5q9 -12 23 -19.5t35 -7.5t35 7.5t23 19.5q9 13 15 31.5
t9.5 48t4.5 73.5t1 107zM395 356q0 -67 -1 -116.5t-6 -86.5t-15.5 -63.5t-28.5 -46.5q-20 -23 -50 -37t-73 -14t-72.5 14t-49.5 37q-18 20 -28.5 46.5t-16 63.5t-6.5 86.5t-1 116.5t1 116.5t6.5 86.5t16 63.5t28.5 46.5q20 23 49.5 37t72.5 14t73 -14t50 -37
q18 -20 28.5 -46.5t15.5 -63.5t6 -86.5t1 -116.5z" />
    <glyph glyph-name="Oacute" unicode="&#xd3;" horiz-adv-x="442" 
d="M242 761h-61l68 135h74zM309 356q0 63 -1 107t-4.5 73.5t-9.5 48t-15 31.5q-9 12 -23 19.5t-35 7.5t-35 -7.5t-23 -19.5q-9 -13 -15 -31.5t-9.5 -48t-4.5 -73.5t-1 -107t1 -107t4.5 -73.5t9.5 -48t15 -31.5q9 -12 23 -19.5t35 -7.5t35 7.5t23 19.5q9 13 15 31.5t9.5 48
t4.5 73.5t1 107zM395 356q0 -67 -1 -116.5t-6 -86.5t-15.5 -63.5t-28.5 -46.5q-20 -23 -50 -37t-73 -14t-72.5 14t-49.5 37q-18 20 -28.5 46.5t-16 63.5t-6.5 86.5t-1 116.5t1 116.5t6.5 86.5t16 63.5t28.5 46.5q20 23 49.5 37t72.5 14t73 -14t50 -37q18 -20 28.5 -46.5
t15.5 -63.5t6 -86.5t1 -116.5z" />
    <glyph glyph-name="Ocircumflex" unicode="&#xd4;" horiz-adv-x="442" 
d="M277 761l-60 87l-59 -87h-67l93 135h67l92 -135h-66zM309 356q0 63 -1 107t-4.5 73.5t-9.5 48t-15 31.5q-9 12 -23 19.5t-35 7.5t-35 -7.5t-23 -19.5q-9 -13 -15 -31.5t-9.5 -48t-4.5 -73.5t-1 -107t1 -107t4.5 -73.5t9.5 -48t15 -31.5q9 -12 23 -19.5t35 -7.5t35 7.5
t23 19.5q9 13 15 31.5t9.5 48t4.5 73.5t1 107zM395 356q0 -67 -1 -116.5t-6 -86.5t-15.5 -63.5t-28.5 -46.5q-20 -23 -50 -37t-73 -14t-72.5 14t-49.5 37q-18 20 -28.5 46.5t-16 63.5t-6.5 86.5t-1 116.5t1 116.5t6.5 86.5t16 63.5t28.5 46.5q20 23 49.5 37t72.5 14t73 -14
t50 -37q18 -20 28.5 -46.5t15.5 -63.5t6 -86.5t1 -116.5z" />
    <glyph glyph-name="Otilde" unicode="&#xd5;" horiz-adv-x="442" 
d="M351 813q-26 -26 -44.5 -34t-36.5 -8q-17 0 -29.5 4t-27.5 13q-23 15 -43 15q-10 0 -19.5 -3.5t-25.5 -19.5l-37 37q26 26 43.5 34.5t36.5 8.5q17 0 29.5 -3.5t28.5 -13.5q11 -7 21.5 -11.5t21.5 -4.5q9 0 18.5 4t25.5 20l38 -38v0zM309 356q0 63 -1 107t-4.5 73.5
t-9.5 48t-15 31.5q-9 12 -23 19.5t-35 7.5t-35 -7.5t-23 -19.5q-9 -13 -15 -31.5t-9.5 -48t-4.5 -73.5t-1 -107t1 -107t4.5 -73.5t9.5 -48t15 -31.5q9 -12 23 -19.5t35 -7.5t35 7.5t23 19.5q9 13 15 31.5t9.5 48t4.5 73.5t1 107zM395 356q0 -67 -1 -116.5t-6 -86.5
t-15.5 -63.5t-28.5 -46.5q-20 -23 -50 -37t-73 -14t-72.5 14t-49.5 37q-18 20 -28.5 46.5t-16 63.5t-6.5 86.5t-1 116.5t1 116.5t6.5 86.5t16 63.5t28.5 46.5q20 23 49.5 37t72.5 14t73 -14t50 -37q18 -20 28.5 -46.5t15.5 -63.5t6 -86.5t1 -116.5z" />
    <glyph glyph-name="Odieresis" unicode="&#xd6;" horiz-adv-x="442" 
d="M255 776v82h81v-82h-81zM98 776v82h82v-82h-82zM309 356q0 63 -1 107t-4.5 73.5t-9.5 48t-15 31.5q-9 12 -23 19.5t-35 7.5t-35 -7.5t-23 -19.5q-9 -13 -15 -31.5t-9.5 -48t-4.5 -73.5t-1 -107t1 -107t4.5 -73.5t9.5 -48t15 -31.5q9 -12 23 -19.5t35 -7.5t35 7.5t23 19.5
q9 13 15 31.5t9.5 48t4.5 73.5t1 107zM395 356q0 -67 -1 -116.5t-6 -86.5t-15.5 -63.5t-28.5 -46.5q-20 -23 -50 -37t-73 -14t-72.5 14t-49.5 37q-18 20 -28.5 46.5t-16 63.5t-6.5 86.5t-1 116.5t1 116.5t6.5 86.5t16 63.5t28.5 46.5q20 23 49.5 37t72.5 14t73 -14t50 -37
q18 -20 28.5 -46.5t15.5 -63.5t6 -86.5t1 -116.5z" />
    <glyph glyph-name="multiply" unicode="&#xd7;" horiz-adv-x="444" 
d="M339 109l-117 116l-116 -116l-53 52l117 117l-117 116l53 53l116 -117l117 117l52 -53l-116 -116l116 -117z" />
    <glyph glyph-name="Oslash" unicode="&#xd8;" horiz-adv-x="431" 
d="M309 356q0 72 -1.5 112t-6.5 63l-136 -440q19 -22 56 -22q21 0 35 7.5t23 19.5q9 13 15 31.5t9.5 48t4.5 73.5t1 107zM277 620q-20 23 -56 23q-21 0 -35 -7.5t-23 -19.5q-9 -13 -15 -31.5t-9.5 -48t-4.5 -73.5t-1 -107q0 -37 0.5 -64.5t1 -48.5t2 -36t4.5 -27l136 440v0z
M395 356q0 -67 -1 -116.5t-6 -86.5t-15.5 -63.5t-28.5 -46.5q-20 -23 -50 -37t-73 -14q-51 0 -83 19l-19 -55h-62l34 96q-16 20 -24.5 47t-13 64t-5.5 84.5t-1 108.5q0 67 1 116.5t6.5 86.5t16 63.5t28.5 46.5q20 23 49.5 37t72.5 14q49 0 83 -20l19 56h62l-33 -97
q15 -20 24 -47t13 -64t5 -84.5t1 -107.5z" />
    <glyph glyph-name="Ugrave" unicode="&#xd9;" horiz-adv-x="445" 
d="M200 761l-81 135h74l69 -135h-62zM387 162q0 -39 -12 -70t-34 -53q-23 -23 -53.5 -35t-65.5 -12q-71 0 -118 47q-22 22 -34 53t-12 70v550h86v-555q0 -42 23 -65t55 -23t55.5 23t23.5 65v555h86v-550v0z" />
    <glyph glyph-name="Uacute" unicode="&#xda;" horiz-adv-x="445" 
d="M250 761h-61l68 135h74zM387 162q0 -39 -12 -70t-34 -53q-23 -23 -53.5 -35t-65.5 -12q-71 0 -118 47q-22 22 -34 53t-12 70v550h86v-555q0 -42 23 -65t55 -23t55.5 23t23.5 65v555h86v-550v0z" />
    <glyph glyph-name="Ucircumflex" unicode="&#xdb;" horiz-adv-x="445" 
d="M285 761l-60 87l-59 -87h-67l93 135h67l92 -135h-66zM387 162q0 -39 -12 -70t-34 -53q-23 -23 -53.5 -35t-65.5 -12q-71 0 -118 47q-22 22 -34 53t-12 70v550h86v-555q0 -42 23 -65t55 -23t55.5 23t23.5 65v555h86v-550v0z" />
    <glyph glyph-name="Udieresis" unicode="&#xdc;" horiz-adv-x="445" 
d="M263 776v82h81v-82h-81zM106 776v82h82v-82h-82zM387 162q0 -39 -12 -70t-34 -53q-23 -23 -53.5 -35t-65.5 -12q-71 0 -118 47q-22 22 -34 53t-12 70v550h86v-555q0 -42 23 -65t55 -23t55.5 23t23.5 65v555h86v-550v0z" />
    <glyph glyph-name="Yacute" unicode="&#xdd;" horiz-adv-x="353" 
d="M203 761h-61l68 135h74zM219 288v-288h-86v288l-131 424h94l80 -304l80 304h95z" />
    <glyph glyph-name="Thorn" unicode="&#xde;" horiz-adv-x="435" 
d="M307 360q0 29 -3.5 53t-12.5 41t-24.5 26.5t-40.5 9.5h-76v-261h76q49 0 65 36t16 95zM393 360q0 -111 -40 -159.5t-129 -48.5h-74v-152h-86v712h86v-144h74q40 0 71.5 -10.5t53.5 -34.5t33 -64t11 -99z" />
    <glyph glyph-name="germandbls" unicode="&#xdf;" horiz-adv-x="394" 
d="M355 219q0 -32 -1 -58t-5.5 -48.5t-13 -41t-24.5 -34.5q-23 -22 -51.5 -29.5t-58.5 -7.5v73q15 0 29 3.5t23 14.5q14 17 17.5 48.5t3.5 85.5q0 50 -3.5 81.5t-16.5 48.5q-15 20 -45 20h-8v69h7q23 0 38 18q14 17 16.5 39.5t2.5 43.5q0 27 -3.5 48t-15.5 35q-16 19 -45 19
q-26 0 -44.5 -17.5t-18.5 -55.5v-574h-81v571q0 41 11 66t30 44q19 18 45.5 28.5t56.5 10.5t57 -9t47 -29q26 -26 34 -57.5t8 -73.5q0 -26 -3 -51.5t-15 -48.5t-36 -39q22 -14 35 -33q9 -12 14.5 -26t8.5 -32.5t4 -43t1 -58.5z" />
    <glyph glyph-name="agrave" unicode="&#xe0;" horiz-adv-x="375" 
d="M160 586l-81 135h74l69 -135h-62zM240 240h-46q-19 0 -32.5 -4t-25.5 -15t-18 -30.5t-6 -40.5q0 -41 15.5 -64t47.5 -23q29 0 47 22.5t18 58.5v96zM244 0v46q-6 -11 -14 -20t-16 -15q-12 -9 -26.5 -14t-34.5 -5q-29 0 -50 9.5t-39 29.5q-33 36 -33 116q0 36 11.5 66.5
t34.5 50.5q19 17 44 26t66 9h53v82q0 74 -61 74q-25 0 -40 -17q-11 -11 -15 -25t-4 -35h-81q0 30 8.5 58.5t31.5 51.5q17 17 43 27.5t57 10.5t57 -9t44 -27q19 -20 30 -47t11 -67v-376h-77z" />
    <glyph glyph-name="aacute" unicode="&#xe1;" horiz-adv-x="375" 
d="M210 586h-61l68 135h74zM241 240h-46q-19 0 -32.5 -4t-25.5 -15q-11 -11 -17.5 -30.5t-6.5 -40.5q0 -41 15.5 -64t47.5 -23q29 0 47 22.5t18 58.5v96zM245 0v46q-6 -11 -14 -20t-16 -15q-12 -9 -26 -14t-35 -5q-29 0 -50 9.5t-39 29.5q-15 17 -24 46t-9 70
q0 36 11.5 66.5t34.5 50.5q20 17 44.5 26t65.5 9h53v82q0 74 -61 74q-14 0 -23 -4.5t-17 -12.5q-11 -11 -15 -25t-4 -35h-81q0 30 8.5 58.5t31.5 51.5q17 17 43.5 27.5t56.5 10.5q65 0 101 -36q19 -20 30 -47t11 -67v-376h-77z" />
    <glyph glyph-name="acircumflex" unicode="&#xe2;" horiz-adv-x="375" 
d="M243 586l-60 87l-59 -87h-67l93 135h67l92 -135h-66zM241 240h-46q-19 0 -32.5 -4t-25.5 -15q-11 -11 -17.5 -30.5t-6.5 -40.5q0 -41 15.5 -64t47.5 -23q29 0 47 22.5t18 58.5v96zM245 0v46q-6 -11 -14 -20t-16 -15q-12 -9 -26 -14t-35 -5q-29 0 -50 9.5t-39 29.5
q-15 17 -24 46t-9 70q0 36 11.5 66.5t34.5 50.5q20 17 44.5 26t65.5 9h53v82q0 74 -61 74q-14 0 -23 -4.5t-17 -12.5q-11 -11 -15 -25t-4 -35h-81q0 30 8.5 58.5t31.5 51.5q17 17 43.5 27.5t56.5 10.5q65 0 101 -36q19 -20 30 -47t11 -67v-376h-77z" />
    <glyph glyph-name="atilde" unicode="&#xe3;" horiz-adv-x="375" 
d="M317 638q-26 -26 -44.5 -34t-36.5 -8q-17 0 -29.5 4t-27.5 13q-23 15 -43 15q-10 0 -19.5 -3.5t-25.5 -19.5l-37 37q26 26 43.5 34.5t36.5 8.5q17 0 29.5 -3.5t28.5 -13.5q11 -7 21.5 -11.5t21.5 -4.5q9 0 18.5 4t25.5 20l38 -38v0zM241 240h-46q-19 0 -32.5 -4
t-25.5 -15q-11 -11 -17.5 -30.5t-6.5 -40.5q0 -41 15.5 -64t47.5 -23q29 0 47 22.5t18 58.5v96zM245 0v46q-6 -11 -14 -20t-16 -15q-12 -9 -26 -14t-35 -5q-29 0 -50 9.5t-39 29.5q-15 17 -24 46t-9 70q0 36 11.5 66.5t34.5 50.5q20 17 44.5 26t65.5 9h53v82q0 74 -61 74
q-14 0 -23 -4.5t-17 -12.5q-11 -11 -15 -25t-4 -35h-81q0 30 8.5 58.5t31.5 51.5q17 17 43.5 27.5t56.5 10.5q65 0 101 -36q19 -20 30 -47t11 -67v-376h-77z" />
    <glyph glyph-name="adieresis" unicode="&#xe4;" horiz-adv-x="375" 
d="M221 601v82h81v-82h-81zM64 601v82h82v-82h-82zM241 240h-46q-19 0 -32.5 -4t-25.5 -15q-11 -11 -17.5 -30.5t-6.5 -40.5q0 -41 15.5 -64t47.5 -23q29 0 47 22.5t18 58.5v96zM245 0v46q-6 -11 -14 -20t-16 -15q-12 -9 -26 -14t-35 -5q-29 0 -50 9.5t-39 29.5
q-15 17 -24 46t-9 70q0 36 11.5 66.5t34.5 50.5q20 17 44.5 26t65.5 9h53v82q0 74 -61 74q-14 0 -23 -4.5t-17 -12.5q-11 -11 -15 -25t-4 -35h-81q0 30 8.5 58.5t31.5 51.5q17 17 43.5 27.5t56.5 10.5q65 0 101 -36q19 -20 30 -47t11 -67v-376h-77z" />
    <glyph glyph-name="aring" unicode="&#xe5;" horiz-adv-x="375" 
d="M232 682q0 20 -14.5 34.5t-34.5 14.5t-34.5 -14.5t-14.5 -34.5t14.5 -35t34.5 -15t34.5 15t14.5 35zM241 240h-46q-19 0 -32.5 -4t-25.5 -15q-11 -11 -17.5 -30.5t-6.5 -40.5q0 -41 15.5 -64t47.5 -23q29 0 47 22.5t18 58.5v96zM281 682q0 -41 -28.5 -69.5t-69.5 -28.5
t-69 28.5t-28 69.5t28 69t69 28t69.5 -28t28.5 -69zM245 0v46q-6 -11 -14 -20t-16 -15q-12 -9 -26 -14t-35 -5q-29 0 -50 9.5t-39 29.5q-15 17 -24 46t-9 70q0 36 11.5 66.5t34.5 50.5q20 17 44.5 26t65.5 9h53v82q0 74 -61 74q-14 0 -23 -4.5t-17 -12.5q-11 -11 -15 -25
t-4 -35h-81q0 30 8.5 58.5t31.5 51.5q17 17 43.5 27.5t56.5 10.5q65 0 101 -36q19 -20 30 -47t11 -67v-376h-77z" />
    <glyph glyph-name="ae" unicode="&#xe6;" horiz-adv-x="573" 
d="M453 301q0 53 -4 85t-16 46q-8 9 -18.5 15.5t-26.5 6.5t-26.5 -6.5t-18.5 -15.5q-12 -14 -16.5 -46t-4.5 -85h131v0zM241 240h-46q-19 0 -32.5 -4t-25.5 -15q-11 -11 -17.5 -30.5t-6.5 -40.5q0 -41 15.5 -64t47.5 -23q29 0 47 22.5t18 58.5v96zM322 240q0 -62 3.5 -99
t17.5 -54q8 -9 19 -15.5t27 -6.5q28 0 46 20q18 21 18 59h80q-1 -35 -10.5 -63t-30.5 -51q-19 -20 -45.5 -29t-57.5 -9q-50 0 -86 28q-22 17 -36 44q-8 -16 -18 -29t-21 -21q-28 -22 -74 -22q-29 0 -50 9.5t-39 29.5q-15 17 -24 46t-9 70q0 36 11.5 66.5t34.5 50.5
q20 17 44.5 26t65.5 9h53v82q0 74 -61 74q-25 0 -41 -18q-18 -21 -18 -59h-81q0 30 8.5 58.5t31.5 51.5q17 17 43.5 27.5t56.5 10.5q26 0 48 -6t38 -20q10 -9 19 -23q6 10 15 18q34 31 88 31q32 0 57 -9t45 -31q16 -18 25 -43t13 -56t5 -68t1 -79h-212z" />
    <glyph glyph-name="ccedilla" unicode="&#xe7;" horiz-adv-x="362" 
d="M176 -182h-64l57 144h57zM329 144q-1 -37 -10.5 -66.5t-29.5 -49.5q-18 -19 -44 -27.5t-58 -8.5q-33 0 -61 11t-48 37q-24 31 -31 85.5t-7 133.5t7 133.5t31 85.5q20 26 48 37t61 11q32 0 56.5 -7t44.5 -27q23 -23 31.5 -54.5t9.5 -63.5h-80q0 16 -2.5 31.5t-13.5 28.5
q-17 20 -45 20q-30 0 -46 -22q-14 -20 -17.5 -61.5t-3.5 -111.5t3.5 -111t17.5 -61q16 -22 46 -22q27 0 44 19q11 12 14 27t3 33h80v0z" />
    <glyph glyph-name="egrave" unicode="&#xe8;" 
d="M196 586l-81 135h74l69 -135h-62zM295 301q0 53 -4 85t-16 46q-8 9 -19 15.5t-27 6.5t-26.5 -6.5t-18.5 -15.5q-12 -14 -16.5 -46t-4.5 -85h132v0zM163 240q0 -62 4 -99t18 -54q8 -9 18.5 -15.5t26.5 -6.5q28 0 46 20q18 21 18 59h80q-1 -35 -10.5 -63t-30.5 -51
q-19 -20 -45.5 -29t-57.5 -9q-34 0 -58 9.5t-44 30.5q-30 31 -38 88t-8 139t7.5 139t37.5 88q39 40 102 40q32 0 57 -9t45 -31q32 -35 38.5 -98.5t6.5 -147.5h-213z" />
    <glyph glyph-name="eacute" unicode="&#xe9;" horiz-adv-x="372" 
d="M213 586h-61l68 135h74zM253 301q0 53 -4 85t-16 46q-8 9 -19 15.5t-27 6.5t-26.5 -6.5t-18.5 -15.5q-12 -14 -16.5 -46t-4.5 -85h132v0zM121 240q0 -62 4 -99t18 -54q8 -9 18.5 -15.5t26.5 -6.5q28 0 46 20q18 21 18 59h80q-1 -35 -10.5 -63t-30.5 -51
q-19 -20 -45.5 -29t-57.5 -9q-34 0 -58 9.5t-44 30.5q-30 31 -38 88t-8 139t7.5 139t37.5 88q39 40 102 40q32 0 57 -9t45 -31q32 -35 38.5 -98.5t6.5 -147.5h-213z" />
    <glyph glyph-name="ecircumflex" unicode="&#xea;" horiz-adv-x="372" 
d="M248 586l-60 87l-59 -87h-67l93 135h67l92 -135h-66zM253 301q0 53 -4 85t-16 46q-8 9 -19 15.5t-27 6.5t-26.5 -6.5t-18.5 -15.5q-12 -14 -16.5 -46t-4.5 -85h132v0zM121 240q0 -62 4 -99t18 -54q8 -9 18.5 -15.5t26.5 -6.5q28 0 46 20q18 21 18 59h80q-1 -35 -10.5 -63
t-30.5 -51q-19 -20 -45.5 -29t-57.5 -9q-34 0 -58 9.5t-44 30.5q-30 31 -38 88t-8 139t7.5 139t37.5 88q39 40 102 40q32 0 57 -9t45 -31q32 -35 38.5 -98.5t6.5 -147.5h-213z" />
    <glyph glyph-name="edieresis" unicode="&#xeb;" horiz-adv-x="372" 
d="M226 601v82h81v-82h-81zM69 601v82h82v-82h-82zM253 301q0 53 -4 85t-16 46q-8 9 -19 15.5t-27 6.5t-26.5 -6.5t-18.5 -15.5q-12 -14 -16.5 -46t-4.5 -85h132v0zM121 240q0 -62 4 -99t18 -54q8 -9 18.5 -15.5t26.5 -6.5q28 0 46 20q18 21 18 59h80q-1 -35 -10.5 -63
t-30.5 -51q-19 -20 -45.5 -29t-57.5 -9q-34 0 -58 9.5t-44 30.5q-30 31 -38 88t-8 139t7.5 139t37.5 88q39 40 102 40q32 0 57 -9t45 -31q32 -35 38.5 -98.5t6.5 -147.5h-213z" />
    <glyph glyph-name="igrave" unicode="&#xec;" horiz-adv-x="195" 
d="M75 586l-81 135h74l69 -135h-62zM58 0v518h81v-518h-81z" />
    <glyph glyph-name="iacute" unicode="&#xed;" horiz-adv-x="195" 
d="M124 586h-62l69 135h74zM58 0v518h81v-518h-81z" />
    <glyph glyph-name="icircumflex" unicode="&#xee;" horiz-adv-x="195" 
d="M158 586l-60 87l-60 -87h-66l93 135h66l93 -135h-66zM58 0v518h81v-518h-81z" />
    <glyph glyph-name="idieresis" unicode="&#xef;" horiz-adv-x="195" 
d="M-21 601v82h82v-82h-82zM135 601v82h82v-82h-82zM58 0v518h81v-518h-81z" />
    <glyph glyph-name="eth" unicode="&#xf0;" 
d="M254 247q0 67 -3 105.5t-17 56.5q-16 21 -46 21q-29 0 -45 -21q-14 -18 -17.5 -56.5t-3.5 -105.5t3.5 -105t17.5 -56q16 -21 45 -21q30 0 46 21q14 18 17 56t3 105zM335 246q0 -76 -7 -128t-31 -81q-20 -24 -47 -34.5t-62 -10.5t-61.5 10.5t-46.5 34.5q-24 29 -31.5 81
t-7.5 128q0 87 6.5 138t31.5 79q17 18 38.5 27.5t50.5 9.5q14 0 30 -4t28 -12l-31 91h-78v61h58l-27 76h82l27 -76h71v-61h-52l35 -108q6 -20 10.5 -41.5t7.5 -47t4.5 -58t1.5 -74.5z" />
    <glyph glyph-name="ntilde" unicode="&#xf1;" horiz-adv-x="395" 
d="M335 638q-26 -26 -44.5 -34t-36.5 -8q-17 0 -29.5 4t-27.5 13q-23 15 -43 15q-10 0 -19.5 -3.5t-25.5 -19.5l-37 37q26 26 43.5 34.5t36.5 8.5q17 0 29.5 -3.5t28.5 -13.5q11 -7 21.5 -11.5t21.5 -4.5q9 0 18.5 4t25.5 20l38 -38v0zM261 0v381q0 36 -18 54t-44 18
t-43.5 -18t-17.5 -54v-381h-81v518h78v-40q5 9 14.5 18t17.5 14q26 16 56 16q29 0 50 -9.5t38 -28.5q16 -17 23.5 -41t7.5 -66v-381h-81z" />
    <glyph glyph-name="ograve" unicode="&#xf2;" 
d="M202 586l-81 135h74l69 -135h-62zM295 259q0 70 -3 111.5t-17 61.5q-16 22 -46 22q-29 0 -45 -22q-14 -20 -17.5 -61.5t-3.5 -111.5t3.5 -111t17.5 -61q16 -22 45 -22q30 0 46 22q14 20 17 61t3 111zM376 259q0 -79 -6.5 -133.5t-30.5 -85.5q-20 -26 -47.5 -37t-62.5 -11
t-62 11t-47 37q-24 31 -31 85.5t-7 133.5t7 133.5t31 85.5q20 26 47 37t62 11t62.5 -11t47.5 -37q24 -31 30.5 -85.5t6.5 -133.5z" />
    <glyph glyph-name="oacute" unicode="&#xf3;" horiz-adv-x="375" 
d="M213 586h-61l68 135h74zM253 259q0 70 -3 111.5t-17 61.5q-16 22 -46 22q-29 0 -45 -22q-14 -20 -17.5 -61.5t-3.5 -111.5t3.5 -111t17.5 -61q16 -22 45 -22q30 0 46 22q14 20 17 61t3 111zM334 259q0 -79 -6.5 -133.5t-30.5 -85.5q-20 -26 -47.5 -37t-62.5 -11t-62 11
t-47 37q-24 31 -31 85.5t-7 133.5t7 133.5t31 85.5q20 26 47 37t62 11t62.5 -11t47.5 -37q24 -31 30.5 -85.5t6.5 -133.5z" />
    <glyph glyph-name="ocircumflex" unicode="&#xf4;" horiz-adv-x="375" 
d="M248 586l-60 87l-59 -87h-67l93 135h67l92 -135h-66zM253 259q0 70 -3 111.5t-17 61.5q-16 22 -46 22q-29 0 -45 -22q-14 -20 -17.5 -61.5t-3.5 -111.5t3.5 -111t17.5 -61q16 -22 45 -22q30 0 46 22q14 20 17 61t3 111zM334 259q0 -79 -6.5 -133.5t-30.5 -85.5
q-20 -26 -47.5 -37t-62.5 -11t-62 11t-47 37q-24 31 -31 85.5t-7 133.5t7 133.5t31 85.5q20 26 47 37t62 11t62.5 -11t47.5 -37q24 -31 30.5 -85.5t6.5 -133.5z" />
    <glyph glyph-name="otilde" unicode="&#xf5;" horiz-adv-x="375" 
d="M321 638q-26 -26 -44.5 -34t-36.5 -8q-17 0 -29.5 4t-27.5 13q-23 15 -43 15q-10 0 -19.5 -3.5t-25.5 -19.5l-37 37q26 26 43.5 34.5t36.5 8.5q17 0 29.5 -3.5t28.5 -13.5q11 -7 21.5 -11.5t21.5 -4.5q9 0 18.5 4t25.5 20l38 -38v0zM253 259q0 70 -3 111.5t-17 61.5
q-16 22 -46 22q-29 0 -45 -22q-14 -20 -17.5 -61.5t-3.5 -111.5t3.5 -111t17.5 -61q16 -22 45 -22q30 0 46 22q14 20 17 61t3 111zM334 259q0 -79 -6.5 -133.5t-30.5 -85.5q-20 -26 -47.5 -37t-62.5 -11t-62 11t-47 37q-24 31 -31 85.5t-7 133.5t7 133.5t31 85.5
q20 26 47 37t62 11t62.5 -11t47.5 -37q24 -31 30.5 -85.5t6.5 -133.5z" />
    <glyph glyph-name="odieresis" unicode="&#xf6;" horiz-adv-x="375" 
d="M226 601v82h81v-82h-81zM69 601v82h82v-82h-82zM253 259q0 70 -3 111.5t-17 61.5q-16 22 -46 22q-29 0 -45 -22q-14 -20 -17.5 -61.5t-3.5 -111.5t3.5 -111t17.5 -61q16 -22 45 -22q30 0 46 22q14 20 17 61t3 111zM334 259q0 -79 -6.5 -133.5t-30.5 -85.5
q-20 -26 -47.5 -37t-62.5 -11t-62 11t-47 37q-24 31 -31 85.5t-7 133.5t7 133.5t31 85.5q20 26 47 37t62 11t62.5 -11t47.5 -37q24 -31 30.5 -85.5t6.5 -133.5z" />
    <glyph glyph-name="divide" unicode="&#xf7;" horiz-adv-x="444" 
d="M173 394v99h99v-99h-99zM173 61v99h99v-99h-99zM46 238v78h352v-78h-352z" />
    <glyph glyph-name="oslash" unicode="&#xf8;" horiz-adv-x="370" 
d="M230 438q-16 18 -43 18q-29 0 -45 -22q-14 -20 -17.5 -61.5t-3.5 -113.5q0 -33 0.5 -58.5t4.5 -39.5l104 277v0zM254 259q0 33 -1 58.5t-5 39.5l-103 -277q16 -18 42 -18q30 0 46 22q14 20 17.5 61.5t3.5 113.5zM302 471q21 -32 26.5 -86t5.5 -126q0 -79 -6.5 -133.5
t-30.5 -85.5q-20 -26 -47.5 -37t-62.5 -11q-42 0 -73 17l-20 -53h-58l36 91q-20 32 -26 86t-6 126q0 79 7 133.5t31 85.5q20 26 47 37t62 11q42 0 73 -17l21 53h58z" />
    <glyph glyph-name="ugrave" unicode="&#xf9;" horiz-adv-x="395" 
d="M170 586l-81 135h74l69 -135h-62zM260 0v40q-5 -9 -14.5 -18t-17.5 -14q-26 -16 -56 -16q-29 0 -50 9.5t-38 28.5q-16 17 -23.5 41t-7.5 66v381h81v-381q0 -36 18 -54t44 -18t43.5 18t17.5 54v381h81v-518h-78z" />
    <glyph glyph-name="uacute" unicode="&#xfa;" horiz-adv-x="395" 
d="M230 586h-61l68 135h74zM260 0v40q-5 -9 -14.5 -18t-17.5 -14q-26 -16 -56 -16q-29 0 -50 9.5t-38 28.5q-16 17 -23.5 41t-7.5 66v381h81v-381q0 -36 18 -54t44 -18t43.5 18t17.5 54v381h81v-518h-78z" />
    <glyph glyph-name="ucircumflex" unicode="&#xfb;" horiz-adv-x="395" 
d="M259 586l-60 87l-59 -87h-67l93 135h67l92 -135h-66zM260 0v40q-5 -9 -14.5 -18t-17.5 -14q-26 -16 -56 -16q-29 0 -50 9.5t-38 28.5q-16 17 -23.5 41t-7.5 66v381h81v-381q0 -36 18 -54t44 -18t43.5 18t17.5 54v381h81v-518h-78z" />
    <glyph glyph-name="udieresis" unicode="&#xfc;" horiz-adv-x="395" 
d="M236 601v82h81v-82h-81zM79 601v82h82v-82h-82zM260 0v40q-5 -9 -14.5 -18t-17.5 -14q-26 -16 -56 -16q-29 0 -50 9.5t-38 28.5q-16 17 -23.5 41t-7.5 66v381h81v-381q0 -36 18 -54t44 -18t43.5 18t17.5 54v381h81v-518h-78z" />
    <glyph glyph-name="yacute" unicode="&#xfd;" horiz-adv-x="345" 
d="M200 586h-61l68 135h74zM193 -83q-8 -35 -24 -56.5t-38 -33.5t-50 -16.5t-60 -4.5v72q38 0 61 12.5t32 47.5l16 63l-126 517h89l79 -389l78 389h89z" />
    <glyph glyph-name="thorn" unicode="&#xfe;" horiz-adv-x="389" 
d="M266 259q0 70 -3 111.5t-17 61.5q-16 22 -45 22q-26 0 -42 -16q-20 -20 -20 -60v-237q0 -41 20 -61q8 -8 19 -11.5t23 -3.5q29 0 45 22q14 20 17 61t3 111zM347 259q0 -90 -6 -145t-31 -84q-16 -19 -36.5 -28.5t-49.5 -9.5q-32 0 -56 15q-8 5 -16 13t-13 16v-230h-81v906
h78v-234q4 8 14 17.5t18 14.5q26 16 56 16q26 0 47.5 -9t38.5 -29q25 -29 31 -84t6 -145z" />
    <glyph glyph-name="ydieresis" unicode="&#xff;" horiz-adv-x="345" 
d="M213 601v82h81v-82h-81zM56 601v82h82v-82h-82zM193 -83q-8 -35 -24 -56.5t-38 -33.5t-50 -16.5t-60 -4.5v72q38 0 61 12.5t32 47.5l16 63l-126 517h89l79 -389l78 389h89z" />
    <glyph glyph-name="dotlessi" unicode="&#x131;" horiz-adv-x="195" 
d="M58 0v518h81v-518h-81z" />
    <glyph glyph-name="Lslash" unicode="&#x141;" horiz-adv-x="368" 
d="M71 0v275l-48 -43v85l48 44v351h86v-280l94 84v-85l-94 -84v-270h188v-77h-274z" />
    <glyph glyph-name="lslash" unicode="&#x142;" horiz-adv-x="255" 
d="M235 0q-33 0 -61.5 6t-51.5 26q-21 17 -33.5 45t-12.5 71v161l-57 -56v82l57 55v322h81v-252l58 56v-81l-58 -57v-227q0 -78 78 -78v-73v0z" />
    <glyph glyph-name="OE" unicode="&#x152;" horiz-adv-x="622" 
d="M309 356q0 63 -1 107t-4.5 73.5t-9.5 48t-15 31.5q-9 12 -23 19.5t-35 7.5t-35 -7.5t-23 -19.5q-9 -13 -15 -31.5t-9.5 -48t-4.5 -73.5t-1 -107t1 -107t4.5 -73.5t9.5 -48t15 -31.5q9 -12 23 -19.5t35 -7.5t35 7.5t23 19.5q9 13 15 31.5t9.5 48t4.5 73.5t1 107zM313 0v33
q-17 -20 -41.5 -30.5t-54.5 -10.5q-40 0 -69 14t-49 37q-17 20 -27 46.5t-15.5 63.5t-7.5 86.5t-2 116.5t2 117t7.5 87t15.5 63t27 46q20 23 49 37t69 14q30 0 55.5 -11t40.5 -30v33h267v-77h-188v-239h162v-77h-162v-242h188v-77h-267z" />
    <glyph glyph-name="oe" unicode="&#x153;" horiz-adv-x="586" 
d="M466 301q0 53 -4 85t-16 46q-8 9 -19 15.5t-27 6.5t-26.5 -6.5t-18.5 -15.5q-12 -14 -16.5 -46t-4.5 -85h132v0zM253 259q0 70 -3 111.5t-17 61.5q-16 22 -46 22q-29 0 -45 -22q-14 -20 -17.5 -61.5t-3.5 -111.5t3.5 -111t17.5 -61q16 -22 45 -22q30 0 46 22q14 20 17 61
t3 111zM334 240q0 -62 4 -99t18 -54q8 -9 18.5 -15.5t26.5 -6.5q28 0 46 20q18 21 18 59h80q-1 -35 -10.5 -63t-30.5 -51q-19 -20 -45.5 -29t-57.5 -9q-28 0 -50 8.5t-38 23.5q-5 5 -9.5 11.5t-8.5 13.5q-7 -14 -18 -25q-17 -14 -39.5 -23t-50.5 -9q-35 0 -62 11t-47 37
q-24 31 -31 85.5t-7 133.5t7 133.5t31 85.5q20 26 47 37t62 11q56 0 91 -33q5 -5 9 -10.5t8 -12.5q4 7 8.5 13t9.5 11q35 32 87 32q32 0 57 -9t45 -31q32 -35 38.5 -98.5t6.5 -147.5h-213z" />
    <glyph glyph-name="Scaron" unicode="&#x160;" horiz-adv-x="420" 
d="M246 757h-68l-92 135h67l59 -87l60 87h67zM377 191q0 -56 -9 -92.5t-35 -62.5q-20 -20 -51.5 -31.5t-74.5 -11.5q-82 0 -125 43q-25 25 -34.5 59t-9.5 91h86q0 -35 5 -56.5t19 -36.5q9 -10 24 -16t35 -6q22 0 36.5 6t24.5 17q14 16 18.5 38t4.5 57q0 31 -3 52t-10.5 35.5
t-21 24.5t-35.5 19l-81 33q-27 11 -46 25t-30 34.5t-16 49t-5 69.5q0 47 13.5 84t40.5 62q44 41 113 41q39 0 68.5 -10.5t49.5 -30.5q27 -26 37 -61.5t10 -84.5h-86q0 29 -4 49t-18 37q-19 24 -58 24q-19 0 -32.5 -6t-22.5 -16q-25 -28 -25 -85q0 -26 2.5 -44t10 -31t21 -22
t34.5 -18l80 -33q30 -12 49.5 -28.5t31 -39.5t15.5 -54t4 -73z" />
    <glyph glyph-name="scaron" unicode="&#x161;" horiz-adv-x="359" 
d="M217 582h-68l-92 135h67l59 -87l60 87h67zM328 141q0 -35 -12 -61.5t-32 -46.5q-21 -22 -47.5 -31.5t-58.5 -9.5t-58.5 10t-45.5 30q-44 45 -44 114h80q0 -40 22 -63q9 -9 21.5 -13.5t24.5 -4.5q30 0 49 19q20 20 20 52q0 27 -13 47q-8 11 -19 20t-27 17l-67 34
q-50 25 -71 60q-16 28 -16 68q0 34 11.5 59.5t31.5 45.5t46 29.5t56 9.5q64 0 101 -37q42 -40 42 -114h-80q0 23 -4.5 37t-14.5 25q-9 10 -20.5 14t-23.5 4q-28 0 -45 -17q-19 -19 -19 -50q0 -22 9 -38q11 -19 43 -34l66 -33q52 -25 73 -59q22 -33 22 -83z" />
    <glyph glyph-name="Ydieresis" unicode="&#x178;" horiz-adv-x="353" 
d="M216 776v82h81v-82h-81zM59 776v82h82v-82h-82zM219 288v-288h-86v288l-131 424h94l80 -304l80 304h95z" />
    <glyph glyph-name="florin" unicode="&#x192;" horiz-adv-x="351" 
d="M299 644q-29 0 -49.5 -17t-26.5 -49l-35 -193h79v-62h-90l-97 -517h-80l96 517h-54v62h66l35 197q12 69 55.5 101.5t100.5 32.5h30v-72h-30z" />
    <glyph glyph-name="circumflex" unicode="&#x2c6;" 
d="M248 586l-60 87l-59 -87h-67l93 135h67l92 -135h-66z" />
    <glyph glyph-name="caron" unicode="&#x2c7;" 
d="M222 582h-68l-92 135h67l59 -87l60 87h67z" />
    <glyph glyph-name="breve" unicode="&#x2d8;" 
d="M306 696q-4 -59 -36 -85t-82 -26t-81.5 26t-35.5 85h58q3 -28 19 -40.5t40 -12.5t40 12.5t19 40.5h59v0z" />
    <glyph glyph-name="dotaccent" unicode="&#x2d9;" 
d="M148 619v81h81v-81h-81z" />
    <glyph glyph-name="ring" unicode="&#x2da;" 
d="M237 682q0 20 -14.5 34.5t-34.5 14.5t-34.5 -14.5t-14.5 -34.5t14.5 -35t34.5 -15t34.5 15t14.5 35zM286 682q0 -41 -28.5 -69.5t-69.5 -28.5t-69 28.5t-28 69.5t28 69t69 28t69.5 -28t28.5 -69z" />
    <glyph glyph-name="ogonek" unicode="&#x2db;" 
d="M201 -182l-50 144h57l57 -144h-64z" />
    <glyph glyph-name="tilde" unicode="&#x2dc;" 
d="M322 638q-26 -26 -44.5 -34t-36.5 -8q-17 0 -29.5 4t-27.5 13q-23 15 -43 15q-10 0 -19.5 -3.5t-25.5 -19.5l-37 37q26 26 43.5 34.5t36.5 8.5q17 0 29.5 -3.5t28.5 -13.5q11 -7 21.5 -11.5t21.5 -4.5q9 0 18.5 4t25.5 20l38 -38v0z" />
    <glyph glyph-name="hungarumlaut" unicode="&#x2dd;" 
d="M132 582h-59l53 135h75zM283 582h-59l52 135h75z" />
    <glyph glyph-name="endash" unicode="&#x2013;" horiz-adv-x="444" 
d="M46 244v77h352v-77h-352z" />
    <glyph glyph-name="emdash" unicode="&#x2014;" horiz-adv-x="691" 
d="M51 244v77h589v-77h-589z" />
    <glyph glyph-name="quoteleft" unicode="&#x2018;" horiz-adv-x="207" 
d="M57 615v97l92 68v-165h-92z" />
    <glyph glyph-name="quoteright" unicode="&#x2019;" horiz-adv-x="207" 
d="M57 547v165h92v-97z" />
    <glyph glyph-name="quotesinglbase" unicode="&#x201a;" horiz-adv-x="207" 
d="M57 -68v165h92v-97z" />
    <glyph glyph-name="quotedblleft" unicode="&#x201c;" horiz-adv-x="373" 
d="M57 615v97l92 68v-165h-92zM224 615v97l92 68v-165h-92z" />
    <glyph glyph-name="quotedblright" unicode="&#x201d;" horiz-adv-x="373" 
d="M57 547v165h92v-97zM224 547v165h92v-97z" />
    <glyph glyph-name="quotedblbase" unicode="&#x201e;" horiz-adv-x="373" 
d="M57 -68v165h92v-97zM224 -68v165h92v-97z" />
    <glyph glyph-name="dagger" unicode="&#x2020;" horiz-adv-x="443" 
d="M260 450v-450h-77v450h-137v68h137v194h77v-194h136v-68h-136z" />
    <glyph glyph-name="daggerdbl" unicode="&#x2021;" horiz-adv-x="443" 
d="M260 0v-194h-77v194h-137v68h137v382h-137v68h137v194h77v-194h136v-68h-136v-382h136v-68h-136z" />
    <glyph glyph-name="bullet" unicode="&#x2022;" horiz-adv-x="455" 
d="M390 334q0 -34 -13 -63.5t-35 -51.5t-51.5 -35t-63.5 -13t-63.5 13t-51.5 35t-35 51.5t-13 63.5t13 63.5t35 51.5t51.5 35t63.5 13t63.5 -13t51.5 -35t35 -51.5t13 -63.5z" />
    <glyph glyph-name="ellipsis" unicode="&#x2026;" horiz-adv-x="601" 
d="M251 0v99h99v-99h-99zM59 0v99h99v-99h-99zM444 0v99h99v-99h-99z" />
    <glyph glyph-name="perthousand" unicode="&#x2030;" horiz-adv-x="970" 
d="M208 609q0 25 -12 38t-33 13q-44 0 -44 -51v-151q0 -51 44 -51q21 0 33 13t12 38v151zM851 254q0 25 -12 38t-33 13q-44 0 -44 -51v-151q0 -51 44 -51q21 0 33 13t12 38v151zM556 254q0 25 -12 38t-33 13t-33 -13t-12 -38v-151q0 -25 12 -38t33 -13t33 13t12 38v151z
M246 0h-65l248 712h65zM276 456q0 -53 -32.5 -81.5t-80.5 -28.5t-80 28.5t-32 81.5v154q0 53 32 81.5t80 28.5t80.5 -28.5t32.5 -81.5v-154v0zM919 102q0 -53 -32.5 -81.5t-80.5 -28.5t-80 28.5t-32 81.5v154q0 53 32 81.5t80 28.5t80.5 -28.5t32.5 -81.5v-154v0zM624 102
q0 -53 -32.5 -81.5t-80.5 -28.5t-80.5 28.5t-32.5 81.5v154q0 53 32.5 81.5t80.5 28.5t80.5 -28.5t32.5 -81.5v-154v0z" />
    <glyph glyph-name="guilsinglleft" unicode="&#x2039;" horiz-adv-x="225" 
d="M26 272l148 229v-127l-68 -102l68 -103v-127z" />
    <glyph glyph-name="guilsinglright" unicode="&#x203a;" horiz-adv-x="225" 
d="M51 42v127l68 103l-68 102v127l148 -229z" />
    <glyph glyph-name="trademark" unicode="&#x2122;" horiz-adv-x="616" 
d="M158 660v-381h-56v381h-73v52h202v-52h-73zM506 279v292l-65 -188h-35l-65 184v-288h-56v433h52l87 -233l86 233h53v-433h-57z" />
    <glyph glyph-name="minus" unicode="&#x2212;" horiz-adv-x="298" 
d="M51 244v77h196v-77h-196z" />
    <glyph glyph-name="fraction" unicode="&#x2215;" horiz-adv-x="108" 
d="M-37 0h-64l246 712h65z" />
    <glyph glyph-name="fi" unicode="&#xfb01;" horiz-adv-x="431" 
d="M286 610v94h95v-94h-95zM293 0v518h81v-518h-81zM157 455v-455h-81v455h-59v63h59v51q0 79 45 116q24 20 53.5 26t62.5 6v-73q-41 0 -60.5 -18t-19.5 -60v-48h80v-63h-80z" />
    <glyph glyph-name="fl" unicode="&#xfb02;" horiz-adv-x="468" 
d="M452 0q-33 0 -61.5 6t-51.5 26q-21 17 -33.5 45t-12.5 71v564h81v-561q0 -78 78 -78v-73v0zM157 455v-455h-81v455h-59v63h59v51q0 79 45 116q24 20 53.5 26t62.5 6v-73q-80 0 -80 -78v-48h80v-63h-80z" />
    </font>
</defs>
</svg>
